<?xml version="1.0" encoding="utf-8"?>
<!-- Generator: Adobe Illustrator 16.0.3, SVG Export Plug-In . SVG Version: 6.00 Build 0)  -->
<!DOCTYPE svg PUBLIC "-//W3C//DTD SVG 1.1//EN" "http://www.w3.org/Graphics/SVG/1.1/DTD/svg11.dtd">
<svg version="1.1" xmlns="http://www.w3.org/2000/svg" xmlns:xlink="http://www.w3.org/1999/xlink" x="0px" y="0px" width="70px"
	 height="70.001px" viewBox="0 0 70 70.001" enable-background="new 0 0 70 70.001" xml:space="preserve">
<g id="Layer_1" opacity="0.1">
	<path fill="#FFFFFF" d="M35,1c18.748,0,34,15.252,34,34S53.748,69.001,35,69.001C16.252,69.001,1,53.748,1,35S16.252,1,35,1 M35,0
		C15.669,0,0,15.67,0,35s15.67,35.001,35,35.001S70,54.33,70,35S54.33,0,35,0L35,0z"/>
</g>
<g id="Layer_3">
	<path fill="#066CB5" d="M41.03,37.579h4.045c0.206,0,5.043-0.101,5.043-8.877c0.001-0.086,0.021-2.142-1.404-3.594
		c-0.688-0.7-1.575-1.128-2.639-1.292v-3.026c0-0.552-0.447-1-1-1H24.855c-0.552,0-1,0.448-1,1v3.03
		c-1.033,0.167-1.896,0.593-2.569,1.279c-1.426,1.452-1.407,3.516-1.405,3.585c0,8.794,4.808,8.895,5.012,8.895h4.006
		c1.679,0,3.044,1.322,3.044,2.947s-1.366,2.947-3.044,2.947c-1.763,0-5.044,0-5.044,3.369c0,3.368,3.281,3.368,5.044,3.368h12.13
		c1.763,0,5.045,0,5.045-3.368c0-3.369-3.282-3.369-5.045-3.369c-1.678,0-3.043-1.322-3.043-2.947S39.352,37.579,41.03,37.579z
		 M47.276,26.5c0.839,0.843,0.842,2.16,0.842,2.185c0,6.673-2.94,6.89-3.043,6.895h-0.704c0.936-1.288,1.704-3.396,1.704-6.895
		v-2.821C46.558,25.984,46.967,26.189,47.276,26.5z M21.881,28.667c0-0.013,0-1.32,0.832-2.166c0.295-0.301,0.685-0.503,1.143-0.626
		v2.81c0,3.499,0.769,5.607,1.704,6.896h-0.644C24.792,35.574,21.881,35.356,21.881,28.667z M41.03,45.474
		c2.757,0,3.045,0.418,3.045,1.369s-0.288,1.368-3.045,1.368h-12.13c-2.756,0-3.044-0.417-3.044-1.368s0.288-1.369,3.044-1.369
		c2.782,0,5.044-2.219,5.044-4.947c0-2.728-2.263-4.947-5.044-4.947c-0.03,0-3.044-0.188-3.044-6.895v-6.894h18.219v6.894
		c0,6.674-2.941,6.89-3.045,6.895c-2.78,0-5.043,2.219-5.043,4.947C35.987,43.255,38.25,45.474,41.03,45.474z"/>
</g>
</svg>
