<?xml version="1.0" encoding="utf-8"?>
<!-- Generator: Adobe Illustrator 16.0.3, SVG Export Plug-In . SVG Version: 6.00 Build 0)  -->
<!DOCTYPE svg PUBLIC "-//W3C//DTD SVG 1.1//EN" "http://www.w3.org/Graphics/SVG/1.1/DTD/svg11.dtd">
<svg version="1.1" xmlns="http://www.w3.org/2000/svg" xmlns:xlink="http://www.w3.org/1999/xlink" x="0px" y="0px" width="70px"
	 height="70.001px" viewBox="0 0 70 70.001" enable-background="new 0 0 70 70.001" xml:space="preserve">
<g id="Layer_1" opacity="0.1">
	<path fill="#FFFFFF" d="M35,1c18.748,0,34,15.252,34,34S53.748,69.001,35,69.001C16.252,69.001,1,53.748,1,35S16.252,1,35,1 M35,0
		C15.669,0,0,15.67,0,35s15.67,35.001,35,35.001S70,54.33,70,35S54.33,0,35,0L35,0z"/>
</g>
<g id="Layer_3">
	<path fill="#066CB5" d="M38.356,54.507c-0.629,0-1.232-0.263-1.654-0.72l-1.703-1.741l-1.724,1.762
		c-0.547,0.574-1.423,0.824-2.219,0.631c-0.832-0.222-1.459-0.861-1.654-1.675c-0.013-0.054-0.021-0.109-0.025-0.165l-0.781-11.418
		l-2.172,0.62c-0.825,0.23-1.696-0.02-2.262-0.614c-0.575-0.551-0.809-1.416-0.58-2.227l0.675-2.38l-2.398-0.613
		c-0.789-0.188-1.429-0.81-1.656-1.621c-0.204-0.845,0.043-1.697,0.635-2.26l1.752-1.716l-1.763-1.726
		c-0.581-0.552-0.828-1.404-0.633-2.214c0.237-0.847,0.878-1.469,1.682-1.659l2.381-0.61l-0.675-2.375
		c-0.229-0.817,0.006-1.683,0.612-2.263c0.523-0.552,1.429-0.806,2.226-0.582l2.374,0.677l0.611-2.401
		c0.194-0.804,0.847-1.457,1.662-1.648c0.16-0.046,0.369-0.075,0.579-0.075c0.617,0,1.215,0.256,1.64,0.702l1.714,1.767l1.72-1.773
		c0.558-0.59,1.417-0.834,2.24-0.612c0.786,0.187,1.438,0.838,1.635,1.653l0.61,2.389l2.366-0.675
		c0.824-0.23,1.699,0.019,2.267,0.615c0.571,0.541,0.809,1.406,0.583,2.222l-0.678,2.382l2.399,0.614
		c0.783,0.187,1.423,0.807,1.653,1.615c0.202,0.851-0.045,1.702-0.636,2.264l-1.751,1.716l1.762,1.728
		c0.58,0.552,0.827,1.403,0.636,2.21c-0.237,0.85-0.877,1.471-1.68,1.663l-2.384,0.609l0.676,2.378
		c0.229,0.821-0.009,1.687-0.617,2.265c-0.389,0.409-0.987,0.664-1.606,0.664l0,0c-0.207,0-0.414-0.028-0.614-0.084l-2.178-0.622
		L40.62,52.599c-0.004,0.056-0.013,0.111-0.026,0.166c-0.193,0.803-0.816,1.441-1.625,1.667
		C38.727,54.482,38.525,54.507,38.356,54.507z M34.999,49.616L34.999,49.616c0.269,0,0.527,0.108,0.715,0.301l2.438,2.492
		c0.104,0.11,0.238,0.1,0.353,0.078c0.028-0.01,0.094-0.07,0.129-0.144l0.858-12.532c0.021-0.301,0.177-0.577,0.424-0.75
		s0.561-0.225,0.849-0.144l3.355,0.959c0.123,0.012,0.204-0.001,0.27-0.07c0.104-0.101,0.132-0.208,0.104-0.307l-0.955-3.36
		c-0.074-0.26-0.039-0.539,0.095-0.772c0.135-0.234,0.358-0.403,0.619-0.47l3.395-0.868c0.108-0.026,0.195-0.116,0.225-0.223
		c0.018-0.076-0.014-0.198-0.09-0.271l-2.501-2.452c-0.191-0.188-0.3-0.445-0.3-0.714c0-0.269,0.108-0.526,0.3-0.714l2.49-2.44
		c0.087-0.083,0.118-0.205,0.091-0.321c-0.021-0.066-0.104-0.155-0.198-0.178l-3.411-0.873c-0.262-0.067-0.484-0.237-0.619-0.471
		s-0.169-0.512-0.095-0.772l0.957-3.362c0.026-0.095,0-0.2-0.07-0.267c-0.103-0.106-0.185-0.117-0.229-0.117l-3.432,0.968
		c-0.259,0.073-0.538,0.04-0.772-0.094c-0.234-0.135-0.404-0.358-0.471-0.62l-0.867-3.398c-0.024-0.099-0.101-0.176-0.185-0.196
		l-0.125-0.021c-0.073,0-0.131,0.025-0.181,0.078l-2.446,2.522c-0.377,0.389-1.059,0.389-1.436,0l-2.438-2.513
		c-0.073-0.077-0.155-0.087-0.197-0.087c-0.014,0.004-0.105,0.018-0.12,0.021c-0.084,0.02-0.158,0.095-0.179,0.183l-0.868,3.41
		c-0.067,0.262-0.236,0.486-0.471,0.62c-0.235,0.134-0.513,0.169-0.773,0.095l-3.36-0.958c-0.113-0.011-0.198,0-0.264,0.07
		c-0.105,0.102-0.132,0.207-0.104,0.307l0.954,3.359c0.074,0.26,0.04,0.538-0.095,0.772c-0.135,0.234-0.358,0.403-0.619,0.47
		l-3.393,0.869c-0.111,0.026-0.195,0.114-0.225,0.222c-0.019,0.081,0.011,0.199,0.087,0.271l2.503,2.451
		c0.192,0.188,0.3,0.445,0.3,0.714c0,0.269-0.108,0.526-0.3,0.714l-2.492,2.441c-0.085,0.082-0.116,0.202-0.088,0.317
		c0.021,0.07,0.106,0.16,0.199,0.182l3.409,0.872c0.262,0.067,0.485,0.236,0.619,0.47c0.135,0.234,0.169,0.512,0.095,0.771
		l-0.955,3.366c-0.027,0.098,0,0.202,0.072,0.271c0.097,0.1,0.18,0.11,0.223,0.11l3.433-0.969c0.291-0.082,0.602-0.029,0.849,0.144
		c0.247,0.174,0.402,0.449,0.423,0.75l0.857,12.536c0.035,0.075,0.102,0.13,0.19,0.154c0.137-0.004,0.229-0.027,0.283-0.084
		l2.447-2.501C34.472,49.725,34.729,49.616,34.999,49.616z"/>
</g>
</svg>
