<?xml version="1.0" encoding="utf-8"?>
<!-- Generator: Adobe Illustrator 16.0.3, SVG Export Plug-In . SVG Version: 6.00 Build 0)  -->
<!DOCTYPE svg PUBLIC "-//W3C//DTD SVG 1.1//EN" "http://www.w3.org/Graphics/SVG/1.1/DTD/svg11.dtd">
<svg version="1.1" id="Display" xmlns="http://www.w3.org/2000/svg" xmlns:xlink="http://www.w3.org/1999/xlink" x="0px" y="0px"
	 width="60px" height="60px" viewBox="0 0 60 60" enable-background="new 0 0 60 60" xml:space="preserve">
<path fill-rule="evenodd" clip-rule="evenodd" fill="#ffffff" d="M30,60C13.432,60,0,46.568,0,30S13.432,0,30,0s30,13.432,30,30
	S46.568,60,30,60z M30,2C14.536,2,2,14.536,2,30s12.536,28,28,28s28-12.536,28-28S45.464,2,30,2z M40.875,41h-16.5
	c-2.278,0-4.125-1.865-4.125-4.167c0,0,0-0.272,0-0.694L12,38.916v-12.5l8.25,2.778c0-0.43,0-0.694,0-0.694
	c0-1.982,1.373-3.633,3.208-4.056c-0.706-0.891-1.146-2.007-1.146-3.236c0-2.876,2.309-5.208,5.156-5.208h10.313
	c2.848,0,5.156,2.332,5.156,5.208c0,1.229-0.439,2.346-1.146,3.236C43.627,24.867,45,26.518,45,28.5v8.333
	C45,39.135,43.153,41,40.875,41z"/>
</svg>
