<?xml version="1.0" encoding="utf-8"?>
<!-- Generator: Adobe Illustrator 16.0.3, SVG Export Plug-In . SVG Version: 6.00 Build 0)  -->
<!DOCTYPE svg PUBLIC "-//W3C//DTD SVG 1.1//EN" "http://www.w3.org/Graphics/SVG/1.1/DTD/svg11.dtd">
<svg version="1.1" id="Prize" xmlns="http://www.w3.org/2000/svg" xmlns:xlink="http://www.w3.org/1999/xlink" x="0px" y="0px"
	 width="60px" height="60px" viewBox="0.416 0.242 60 60" enable-background="new 0.416 0.242 60 60" xml:space="preserve">
<g>
	<path fill="#FFFFFF" d="M30.416,0.242c-16.568,0-30,13.433-30,30c0,16.568,13.432,30,30,30c16.568,0,30-13.432,30-30
		C60.416,13.675,46.984,0.242,30.416,0.242z M30.416,58.242c-15.464,0-28-12.536-28-28s12.536-28,28-28s28,12.536,28,28
		S45.88,58.242,30.416,58.242z"/>
	<path fill="#FFFFFF" d="M44.25,21.906c-0.129-0.453-0.489-0.813-0.939-0.92l-3.396-0.869l0.957-3.362
		c0.125-0.453,0-0.94-0.343-1.266c-0.326-0.343-0.812-0.47-1.267-0.343l-3.356,0.958l-0.867-3.398
		c-0.11-0.453-0.472-0.815-0.922-0.922c-0.47-0.126-0.939,0-1.264,0.343l-2.438,2.513l-2.438-2.513
		c-0.326-0.343-0.813-0.47-1.264-0.343c-0.453,0.107-0.813,0.47-0.922,0.922l-0.865,3.398l-3.36-0.958
		c-0.451-0.127-0.938,0-1.264,0.343c-0.341,0.326-0.468,0.813-0.341,1.266l0.955,3.362l-3.393,0.869
		c-0.453,0.107-0.813,0.468-0.94,0.92c-0.109,0.453,0.018,0.94,0.361,1.266l2.492,2.44l-2.492,2.441
		c-0.343,0.326-0.47,0.813-0.361,1.266c0.126,0.451,0.487,0.813,0.94,0.921l3.393,0.868l-0.955,3.364
		c-0.127,0.45,0,0.939,0.341,1.266c0.326,0.343,0.813,0.468,1.264,0.343l3.36-0.96l0.865,12.65c0.109,0.454,0.453,0.814,0.922,0.939
		c0.451,0.111,0.938-0.018,1.264-0.36l2.438-2.493l2.438,2.493c0.234,0.253,0.577,0.398,0.92,0.398c0.107,0,0.236-0.018,0.344-0.038
		c0.45-0.125,0.812-0.485,0.922-0.939l0.867-12.65l3.356,0.96c0.455,0.125,0.94,0,1.267-0.343c0.343-0.326,0.468-0.815,0.343-1.266
		l-0.957-3.364l3.396-0.868c0.45-0.108,0.811-0.47,0.939-0.921c0.107-0.453-0.021-0.94-0.364-1.266l-2.49-2.441l2.49-2.44
		C44.229,22.846,44.357,22.359,44.25,21.906z"/>
</g>
</svg>
