<?xml version="1.0" encoding="utf-8"?>
<!-- Generator: Adobe Illustrator 16.0.3, SVG Export Plug-In . SVG Version: 6.00 Build 0)  -->
<!DOCTYPE svg PUBLIC "-//W3C//DTD SVG 1.1//EN" "http://www.w3.org/Graphics/SVG/1.1/DTD/svg11.dtd">
<svg version="1.1" id="Prize" xmlns="http://www.w3.org/2000/svg" xmlns:xlink="http://www.w3.org/1999/xlink" x="0px" y="0px"
	 width="60px" height="59.982px" viewBox="0 0 60 59.982" enable-background="new 0 0 60 59.982" xml:space="preserve">
<g>
	<path fill-rule="evenodd" clip-rule="evenodd" fill="#FFFFFF" d="M30,0C13.432,0,0,13.432,0,30c0,16.568,13.432,30,30,30
		c16.568,0,30-13.432,30-30C60,13.432,46.568,0,30,0z M30,58C14.536,58,2,45.464,2,30S14.536,2,30,2s28,12.536,28,28
		S45.464,58,30,58z"/>
	<path fill-rule="evenodd" clip-rule="evenodd" fill="#FFFFFF" d="M40,16.082H20c0,0.674,0.014,1.34,0.037,2
		c-2.044,0-3.533,0-4.037,0c0,8.516,2.361,12.988,6.894,14.877c1.366,3.312,3.13,5.678,5.106,6.641v2.826
		c-1.704,0.603-3.055,1.951-3.657,3.657h11.307C35.048,44.379,33.7,43.033,32,42.43V39.6c2.054-1,3.874-3.52,5.261-7.037
		C41.519,30.479,44,26.053,44,18.082c-0.505,0-1.993,0-4.037,0C39.985,17.422,40,16.756,40,16.082z M18,20.082
		c0.314,0,1.076,0,2.143,0c0.263,3.758,0.891,7.21,1.792,10.159C19.342,28.468,18,25.281,18,20.082z M37.933,18.941l-0.07,1.001
		c-0.234,3.339-0.779,6.554-1.577,9.297l-0.533,1.834l-0.067,0.033L35.4,31.83c-1.207,3.059-2.765,5.236-4.276,5.971l-0.909,0.443
		c3.078-1.926,5.49-9.984,6.03-20.162h1.717L37.933,18.941z M42,20.082c0,4.794-1.373,7.873-3.794,9.716
		c0.828-2.849,1.401-6.149,1.651-9.716C40.924,20.082,41.686,20.082,42,20.082z"/>
</g>
</svg>
