<?xml version="1.0" encoding="utf-8"?>
<!-- Generator: Adobe Illustrator 16.0.3, SVG Export Plug-In . SVG Version: 6.00 Build 0)  -->
<!DOCTYPE svg PUBLIC "-//W3C//DTD SVG 1.1//EN" "http://www.w3.org/Graphics/SVG/1.1/DTD/svg11.dtd">
<svg version="1.1" xmlns="http://www.w3.org/2000/svg" xmlns:xlink="http://www.w3.org/1999/xlink" x="0px" y="0px" width="70px"
	 height="70.001px" viewBox="0 0 70 70.001" enable-background="new 0 0 70 70.001" xml:space="preserve">
<g id="Layer_1" opacity="0.1">
	<path fill="#FFFFFF" d="M35,1c18.748,0,34,15.252,34,34S53.748,69.001,35,69.001C16.252,69.001,1,53.748,1,35S16.252,1,35,1 M35,0
		C15.669,0,0,15.67,0,35s15.67,35.001,35,35.001S70,54.33,70,35S54.33,0,35,0L35,0z"/>
</g>
<g id="Layer_2">
	<g>
		<path fill="#066CB5" d="M45.871,48.5h-16.5c-2.597,0-4.749-1.957-5.081-4.484l-6.975,2.349c-0.304,0.103-0.641,0.052-0.903-0.135
			c-0.261-0.188-0.417-0.49-0.417-0.813v-12.5c0-0.321,0.155-0.624,0.417-0.812c0.262-0.188,0.599-0.237,0.902-0.136l6.975,2.348
			c0.216-1.667,1.216-3.098,2.666-3.871c-0.426-0.851-0.647-1.779-0.647-2.738c0-3.423,2.762-6.208,6.156-6.208h10.313
			c3.395,0,6.156,2.785,6.156,6.208c0,0.959-0.221,1.888-0.646,2.738c1.643,0.877,2.709,2.601,2.709,4.554v8.334
			C50.996,46.183,48.697,48.5,45.871,48.5z M25.245,41.639c0.207,0,0.411,0.064,0.583,0.188c0.261,0.188,0.417,0.49,0.417,0.813
			v0.695c0,1.746,1.402,3.166,3.125,3.166h16.5c1.723,0,3.125-1.42,3.125-3.166V35c0-1.484-1-2.751-2.432-3.08
			c-0.336-0.076-0.607-0.319-0.721-0.644c-0.113-0.323-0.053-0.683,0.16-0.951c0.607-0.769,0.93-1.673,0.93-2.617
			c0-2.32-1.865-4.208-4.156-4.208H32.464c-2.292,0-4.156,1.888-4.156,4.208c0,0.944,0.321,1.849,0.93,2.617
			c0.213,0.269,0.273,0.628,0.159,0.951c-0.113,0.324-0.385,0.567-0.719,0.644c-1.432,0.329-2.432,1.596-2.432,3.08v0.694
			c0,0.322-0.155,0.624-0.417,0.813c-0.261,0.188-0.597,0.239-0.902,0.135l-6.931-2.333v9.717l6.931-2.334
			C25.03,41.656,25.138,41.639,25.245,41.639z"/>
	</g>
</g>
</svg>
