<?xml version="1.0" encoding="utf-8"?>
<!-- Generator: Adobe Illustrator 16.0.3, SVG Export Plug-In . SVG Version: 6.00 Build 0)  -->
<!DOCTYPE svg PUBLIC "-//W3C//DTD SVG 1.1//EN" "http://www.w3.org/Graphics/SVG/1.1/DTD/svg11.dtd">
<svg version="1.1" id="Display" xmlns="http://www.w3.org/2000/svg" xmlns:xlink="http://www.w3.org/1999/xlink" x="0px" y="0px"
	 width="20px" height="20.001px" viewBox="20.166 21.344 20 20.001" enable-background="new 20.166 21.344 20 20.001"
	 xml:space="preserve">
<g>
	<path fill-rule="evenodd" clip-rule="evenodd" fill="#026BB5" d="M30.166,21.344c-5.523,0-10,4.477-10,10.001
		c0,5.522,4.477,10,10,10c5.522,0,10-4.478,10-10C40.166,25.821,35.688,21.344,30.166,21.344z M30.166,39.345c-4.411,0-8-3.589-8-8
		c0-4.412,3.589-8.001,8-8.001s8,3.589,8,8.001C38.166,35.756,34.577,39.345,30.166,39.345z"/>
	<polygon fill-rule="evenodd" clip-rule="evenodd" fill="#026BB5" points="31.166,26.344 29.166,26.344 29.166,30.344 
		25.166,30.344 25.166,32.344 29.166,32.344 29.166,36.344 31.166,36.344 31.166,32.344 35.166,32.344 35.166,30.344 31.166,30.344 
			"/>
</g>
</svg>
