<?xml version="1.0" encoding="utf-8"?>
<!-- Generator: Adobe Illustrator 16.0.3, SVG Export Plug-In . SVG Version: 6.00 Build 0)  -->
<!DOCTYPE svg PUBLIC "-//W3C//DTD SVG 1.1//EN" "http://www.w3.org/Graphics/SVG/1.1/DTD/svg11.dtd">
<svg version="1.1" id="Display" xmlns="http://www.w3.org/2000/svg" xmlns:xlink="http://www.w3.org/1999/xlink" x="0px" y="0px"
	 width="24.996px" height="15.469px" viewBox="17.668 23.186 24.996 15.469" enable-background="new 17.668 23.186 24.996 15.469"
	 xml:space="preserve">
<path fill="#026BB5" d="M34.385,26.894c-1.348,1.676-2.021,3.604-2.021,5.784c0,1.828,0.486,3.281,1.459,4.359
	s2.279,1.617,3.92,1.617c1.406,0,2.578-0.475,3.516-1.424s1.406-2.127,1.406-3.533c0-1.336-0.428-2.467-1.283-3.393
	s-1.939-1.436-3.252-1.529c0.164-0.492,0.516-0.984,1.055-1.477s1.242-0.949,2.109-1.371l-1.23-2.742
	C37.625,23.982,35.732,25.219,34.385,26.894z M19.707,26.894c-1.359,1.676-2.039,3.604-2.039,5.784c0,1.828,0.486,3.281,1.459,4.359
	c0.972,1.078,2.279,1.617,3.92,1.617c1.429,0,2.619-0.48,3.568-1.441s1.424-2.133,1.424-3.516c0-1.313-0.439-2.438-1.318-3.375
	s-1.975-1.453-3.287-1.547c0.188-0.492,0.55-0.984,1.09-1.477c0.539-0.492,1.23-0.949,2.074-1.371l-1.23-2.742
	C22.953,23.982,21.066,25.219,19.707,26.894z"/>
</svg>
