<?xml version="1.0" encoding="utf-8"?>
<!-- Generator: Adobe Illustrator 16.0.3, SVG Export Plug-In . SVG Version: 6.00 Build 0)  -->
<!DOCTYPE svg PUBLIC "-//W3C//DTD SVG 1.1//EN" "http://www.w3.org/Graphics/SVG/1.1/DTD/svg11.dtd">
<svg version="1.1" id="Prize" xmlns="http://www.w3.org/2000/svg" xmlns:xlink="http://www.w3.org/1999/xlink" x="0px" y="0px"
	 width="40px" height="40px" viewBox="8.333 11.827 40 40" enable-background="new 8.333 11.827 40 40" xml:space="preserve">
<g>
	<path fill="#FFFFFF" d="M28.333,11.827c-11.046,0-20,8.955-20,20c0,11.047,8.954,20,20,20c11.045,0,20-8.953,20-20
		C48.333,20.781,39.378,11.827,28.333,11.827z M28.333,50.526c-10.311,0-18.7-8.389-18.7-18.7c0-10.311,8.389-18.7,18.7-18.7
		c10.312,0,18.7,8.389,18.7,18.7C47.033,42.138,38.645,50.526,28.333,50.526z"/>
	<polygon fill="#FFFFFF" points="31.873,21.367 21.414,31.826 31.873,42.286 32.793,41.366 23.252,31.826 32.793,22.286 	"/>
</g>
</svg>
