<?xml version="1.0" encoding="utf-8"?>
<!-- Generator: Adobe Illustrator 16.0.3, SVG Export Plug-In . SVG Version: 6.00 Build 0)  -->
<!DOCTYPE svg PUBLIC "-//W3C//DTD SVG 1.1//EN" "http://www.w3.org/Graphics/SVG/1.1/DTD/svg11.dtd">
<svg version="1.1" id="Prize" xmlns="http://www.w3.org/2000/svg" xmlns:xlink="http://www.w3.org/1999/xlink" x="0px" y="0px"
	 width="60px" height="60px" viewBox="0 0 60 60" enable-background="new 0 0 60 60" xml:space="preserve">
<g display="none">
	<polygon fill="#2D2F8D" points="21.997,41.193 42.004,29.196 21.997,17.199 	"/>
	<path display="inline" fill="#2D2F8D" d="M24.833,17c1.462,0,3,1,3,1l13,7c0,0,4,1.982,4,5c0,2.924-4,5-4,5l-13,7c0,0-1.505,1-3,1
		c-2.761,0-5-2.238-5-5c0-3.912,0-16,0-16C19.833,19.239,22.072,17,24.833,17 M19.833,38c0,0.756,0,1.206,0,1.206
		S19.833,38.84,19.833,38 M24.833,15c-3.86,0-7,3.14-7,7v16v1.206h0.104C18.511,42.493,21.385,45,24.833,45
		c1.861,0,3.574-0.997,4.016-1.275l12.933-6.964c0.493-0.256,5.052-2.737,5.052-6.761c0-4.061-4.417-6.441-5.078-6.775
		l-12.914-6.954C28.413,16.005,26.671,15,24.833,15L24.833,15z"/>
	<path display="inline" fill="#2D2F8D" d="M33.499,26.417c-0.15,0-0.303-0.034-0.446-0.105l-6-3
		c-0.494-0.247-0.694-0.848-0.447-1.342c0.247-0.494,0.846-0.695,1.342-0.447l6,3c0.494,0.247,0.694,0.848,0.447,1.342
		C34.219,26.215,33.866,26.417,33.499,26.417z"/>
</g>
<path fill="#FFFFFF" d="M30,1C45.99,1,59,14.01,59,30S45.99,59,30,59C14.009,59,1,45.991,1,30S14.009,1,30,1 M30,0
	C13.431,0,0,13.431,0,30c0,16.566,13.431,30,30,30c16.567,0,30-13.434,30-30C60,13.431,46.566,0,30,0L30,0z"/>
<path display="none" fill="#363D98" d="M30,0C13.432,0,0,13.432,0,30c0,16.568,13.432,30,30,30c16.568,0,30-13.432,30-30
	C60,13.432,46.568,0,30,0z M30,58C14.536,58,2,45.465,2,29.999c0-15.464,12.536-28,28-28s28,12.536,28,28C58,45.465,45.464,58,30,58
	z"/>
<circle fill="none" stroke="#FFFFFF" stroke-width="2" stroke-miterlimit="10" cx="30" cy="30" r="12.563"/>
<path fill="none" stroke="#FFFFFF" stroke-width="2" stroke-linecap="round" stroke-miterlimit="10" d="M23.104,23.681
	c1.175-1.282,2.703-2.235,4.43-2.706"/>
<line fill="none" stroke="#FFFFFF" stroke-width="2" stroke-linecap="round" stroke-linejoin="round" stroke-miterlimit="10" x1="45" y1="45" x2="41.703" y2="41.703"/>
</svg>