<?xml version="1.0" encoding="utf-8"?>
<!-- Generator: Adobe Illustrator 16.0.3, SVG Export Plug-In . SVG Version: 6.00 Build 0)  -->
<!DOCTYPE svg PUBLIC "-//W3C//DTD SVG 1.1//EN" "http://www.w3.org/Graphics/SVG/1.1/DTD/svg11.dtd">
<svg version="1.1" id="Prize" xmlns="http://www.w3.org/2000/svg" xmlns:xlink="http://www.w3.org/1999/xlink" x="0px" y="0px"
	 width="60px" height="60px" viewBox="0 -0.804 60 60" enable-background="new 0 -0.804 60 60" xml:space="preserve">
<g>
	<path fill="#FFFFFF" d="M30-0.804c-16.568,0-30,13.432-30,30s13.432,30,30,30c16.568,0,30-13.432,30-30S46.568-0.804,30-0.804z
		 M30,57.195c-15.464,0-28-12.535-28-28c0-15.464,12.536-28,28-28s28,12.536,28,28C58,44.66,45.464,57.195,30,57.195z"/>
	<path fill="#FFFFFF" d="M41.488,38.065c4.364-5.752,3.939-14.003-1.307-19.25c-2.774-2.774-6.462-4.302-10.385-4.302
		s-7.612,1.528-10.386,4.302c-5.727,5.727-5.727,15.044,0,20.771c2.774,2.774,6.463,4.303,10.386,4.303
		c3.248,0,6.325-1.062,8.865-2.995l4.598,4.598c0.391,0.391,0.902,0.586,1.414,0.586s1.023-0.195,1.414-0.586
		c0.781-0.781,0.781-2.047,0-2.828L41.488,38.065z M37.354,36.759c-2.019,2.019-4.703,3.131-7.557,3.131
		c-2.854,0-5.539-1.112-7.558-3.131c-4.167-4.167-4.167-10.948,0-15.115c2.019-2.019,4.703-3.13,7.558-3.13
		c2.854,0,5.539,1.112,7.557,3.13C41.521,25.812,41.521,32.592,37.354,36.759z"/>
</g>
</svg>
