<?xml version="1.0" encoding="utf-8"?>
<!-- Generator: Adobe Illustrator 16.0.3, SVG Export Plug-In . SVG Version: 6.00 Build 0)  -->
<!DOCTYPE svg PUBLIC "-//W3C//DTD SVG 1.1//EN" "http://www.w3.org/Graphics/SVG/1.1/DTD/svg11.dtd">
<svg version="1.1" xmlns="http://www.w3.org/2000/svg" xmlns:xlink="http://www.w3.org/1999/xlink" x="0px" y="0px"
	 width="1229.813px" height="221.638px" viewBox="0 0 1229.813 221.638" enable-background="new 0 0 1229.813 221.638"
	 xml:space="preserve">
<g id="Logo_1_">
	<path id="Logo" fill-rule="evenodd" clip-rule="evenodd" fill="#FFFFFF" d="M187.782,187.781C167.875,207.688,140.375,220,110,220
		c-34.328,0-64.972-15.735-85.144-40.374c12.424-0.833,24.46-3.08,35.947-6.589C74.397,183.658,91.504,190,110.103,190
		c22.075,0,42.063-8.92,56.551-23.346c0,0,11.346-9.654,21.346,0.346S187.782,187.781,187.782,187.781z M110,100
		c-29.189,87.567-96.334,60.682-97.961,60.016c-0.021-0.041-0.041-0.084-0.062-0.126c0.216-2.233,0.469-4.471,0.782-6.714
		C21.267,92.322,63.812,44.614,118.467,26.575C68.081,36.127,24.451,68.067,0.045,112.979C0.019,111.988,0,110.997,0,110
		C0,49.249,49.249,0,110,0c24.742,0,47.573,8.171,65.949,21.959C163.68,28.183,126.613,50.16,110,100z"/>
</g>
<g id="broker_energetyczny_1_">
	<path id="broker_energetyczny" fill-rule="evenodd" clip-rule="evenodd" fill="#FFFFFF" d="M1198.218,180.118l-23.32,39.359
		c-0.738,1.24-1.688,1.86-2.848,1.86c-0.721,0-1.284-0.261-1.693-0.78c-0.408-0.521-0.566-1.04-0.475-1.56
		c0.092-0.521,0.227-0.94,0.402-1.26l5.667-10.021l-6.435-27.479c-0.09-0.399-0.086-0.88,0.014-1.44
		c0.099-0.56,0.456-1.109,1.07-1.649c0.615-0.54,1.244-0.811,1.884-0.811c1.32,0,2.121,0.561,2.404,1.68l5.198,22.921l13.439-22.801
		c0.731-1.199,1.678-1.8,2.838-1.8c0.76,0,1.353,0.271,1.777,0.811c0.424,0.54,0.586,1.101,0.483,1.68
		C1198.522,179.408,1198.387,179.839,1198.218,180.118z M1159.419,204.838c-0.134,0.761-0.517,1.4-1.148,1.92
		s-1.328,0.78-2.087,0.78c-0.761,0-1.354-0.261-1.783-0.78s-0.575-1.159-0.441-1.92l2.899-16.439c0.401-2.28,0.207-4.07-0.584-5.37
		s-2.366-1.95-4.726-1.95c-3.521,0-7.14,1.92-10.855,5.76l-3.175,18c-0.134,0.761-0.517,1.4-1.148,1.92s-1.327,0.78-2.087,0.78
		s-1.354-0.261-1.783-0.78c-0.428-0.52-0.575-1.159-0.441-1.92l4.54-25.74c0.141-0.8,0.517-1.459,1.129-1.979
		c0.61-0.52,1.297-0.78,2.058-0.78c0.759,0,1.363,0.261,1.812,0.78c0.448,0.521,0.603,1.18,0.462,1.979l-0.435,2.46
		c1.896-1.68,3.484-2.859,4.765-3.54c2.513-1.319,4.798-1.979,6.858-1.979c2.06,0,3.695,0.311,4.906,0.93
		c1.21,0.621,2.181,1.471,2.911,2.55c1.491,2.201,1.944,4.961,1.359,8.28L1159.419,204.838z M1127.546,182.458l-20.271,19.68h15.42
		c0.72,0,1.285,0.251,1.698,0.75c0.411,0.501,0.554,1.11,0.428,1.83c-0.128,0.721-0.483,1.32-1.068,1.8
		c-0.585,0.48-1.236,0.721-1.957,0.721h-18.72c-1.04,0-1.882-0.271-2.527-0.811c-0.645-0.54-0.88-1.299-0.708-2.279
		c0.173-0.98,0.644-1.83,1.41-2.551l20.781-19.859h-15.18c-0.72,0-1.277-0.24-1.673-0.721c-0.396-0.479-0.53-1.079-0.402-1.8
		c0.126-0.72,0.474-1.329,1.042-1.83c0.568-0.499,1.213-0.75,1.933-0.75h18.18c1.04,0,1.825,0.311,2.356,0.931
		c0.53,0.62,0.709,1.42,0.537,2.399C1128.652,180.948,1128.226,181.778,1127.546,182.458z M1098.234,182.638
		c-0.532,0.521-1.018,0.78-1.458,0.78c-0.681,0-1.345-0.199-1.994-0.6c-1.843-1.12-3.884-1.681-6.123-1.681
		c-3.521,0-6.416,0.99-8.685,2.971c-2.269,1.979-3.688,4.59-4.26,7.83c-0.571,3.239-0.072,5.85,1.499,7.829
		c1.57,1.98,4.115,2.971,7.636,2.971c2.24,0,4.479-0.56,6.717-1.681c0.79-0.399,1.465-0.6,2.025-0.6c0.56,0,1.014,0.261,1.362,0.78
		s0.459,1.14,0.333,1.859c-0.128,0.721-0.704,1.38-1.729,1.98c-3.165,1.84-6.527,2.76-10.087,2.76c-4.44,0-7.933-1.399-10.479-4.2
		c-2.678-2.959-3.591-6.859-2.736-11.699c0.854-4.84,3.141-8.74,6.862-11.7c3.533-2.8,7.521-4.2,11.961-4.2
		c2.399,0,4.315,0.311,5.746,0.93c1.431,0.621,2.553,1.23,3.367,1.83c0.813,0.601,1.158,1.26,1.031,1.98
		C1099.095,181.498,1098.767,182.118,1098.234,182.638z M1044.938,219.478c-0.738,1.24-1.688,1.86-2.848,1.86
		c-0.72,0-1.284-0.261-1.693-0.78c-0.409-0.521-0.566-1.04-0.475-1.56c0.092-0.521,0.227-0.94,0.402-1.26l5.667-10.021
		l-6.435-27.479c-0.09-0.399-0.086-0.88,0.014-1.44c0.099-0.56,0.456-1.109,1.071-1.649c0.614-0.54,1.242-0.811,1.883-0.811
		c1.32,0,2.121,0.561,2.404,1.68l5.198,22.921l13.439-22.801c0.731-1.199,1.678-1.8,2.838-1.8c0.76,0,1.353,0.271,1.776,0.811
		c0.425,0.54,0.586,1.101,0.484,1.68c-0.103,0.58-0.238,1.011-0.407,1.29L1044.938,219.478z M1034.502,180.658
		c-0.518,0.44-1.116,0.66-1.796,0.66h-6.78l-3.194,18.12c-0.269,1.521,0.008,2.56,0.829,3.119c0.463,0.321,1.226,0.48,2.286,0.48
		c1.059,0,1.835-0.09,2.327-0.271c0.491-0.18,1.008-0.27,1.548-0.27s0.995,0.2,1.364,0.6c0.369,0.4,0.483,1.001,0.343,1.801
		c-0.143,0.8-0.645,1.38-1.507,1.739c-1.862,0.8-3.402,1.2-4.622,1.2c-1.221,0-2.319-0.06-3.298-0.18
		c-0.979-0.12-1.879-0.46-2.7-1.021c-1.975-1.279-2.68-3.52-2.115-6.72l3.279-18.6h-4.26c-0.761,0-1.073-0.38-0.938-1.141
		c0.063-0.359,0.303-0.699,0.719-1.02l9.567-7.98c0.424-0.359,0.795-0.54,1.115-0.54s0.568,0.12,0.747,0.36
		c0.178,0.24,0.237,0.521,0.182,0.84l-0.847,4.8h6.78c0.68,0,1.2,0.221,1.563,0.66c0.362,0.44,0.483,1,0.363,1.68
		C1035.339,179.658,1035.02,180.219,1034.502,180.658z M1008.282,193.078c-0.592,0.521-1.308,0.78-2.147,0.78h-20.34
		c-0.16,2.72,0.479,4.88,1.916,6.479c1.438,1.601,3.696,2.4,6.777,2.4c3.08,0,5.752-0.52,8.016-1.561
		c0.783-0.359,1.435-0.54,1.955-0.54c0.519,0,0.98,0.221,1.384,0.66c0.402,0.44,0.554,0.94,0.455,1.5
		c-0.184,1.041-0.745,1.791-1.687,2.25c-0.941,0.46-1.78,0.851-2.517,1.17c-0.736,0.321-1.525,0.601-2.367,0.84
		c-1.893,0.52-4.019,0.78-6.378,0.78c-4.92,0-8.497-1.38-10.729-4.14c-2.233-2.76-2.903-6.68-2.007-11.76
		c0.775-4.4,2.561-8.061,5.356-10.98c3.138-3.279,7.066-4.92,11.787-4.92c4.479,0,7.752,1.521,9.816,4.56
		c1.938,2.841,2.538,6.36,1.797,10.561C1009.236,191.918,1008.873,192.559,1008.282,193.078z M1002.343,182.698
		c-1.361-1.359-3.161-2.04-5.401-2.04c-3.561,0-6.438,1.58-8.635,4.74c-0.798,1.12-1.374,2.46-1.729,4.02h17.699
		C1004.618,186.578,1003.974,184.339,1002.343,182.698z M970.468,205.918c-0.896,5.079-2.802,8.97-5.718,11.67
		c-2.915,2.7-6.634,4.05-11.153,4.05c-4.8,0-8.896-1.04-12.291-3.12c-0.642-0.44-0.894-1.05-0.756-1.829
		c0.137-0.78,0.481-1.432,1.033-1.95c0.551-0.521,1.077-0.78,1.577-0.78s0.936,0.079,1.308,0.24c2.771,1.52,5.938,2.279,9.498,2.279
		c6.12,0,9.755-3.26,10.905-9.779l0.709-4.021c-3.377,3.041-7.065,4.561-11.064,4.561c-3.801,0-6.835-1.28-9.104-3.84
		c-2.646-2.92-3.534-6.841-2.666-11.761c0.867-4.92,3.139-8.84,6.813-11.76c3.171-2.56,6.707-3.84,10.607-3.84
		c3.899,0,7.002,1.521,9.307,4.56l0.264-1.5c0.134-0.759,0.509-1.409,1.123-1.949c0.615-0.54,1.304-0.811,2.063-0.811
		s1.362,0.271,1.807,0.811s0.601,1.19,0.467,1.949L970.468,205.918z M965.321,182.368c-1.281-0.9-2.803-1.351-4.563-1.351
		s-3.299,0.221-4.617,0.66c-1.317,0.44-2.51,1.08-3.578,1.92c-2.284,1.841-3.736,4.521-4.357,8.04c-0.91,5.16,0.564,8.48,4.424,9.96
		c1.163,0.441,2.623,0.66,4.384,0.66c2.92,0,6.062-1.479,9.423-4.439l2.18-12.36C967.7,184.298,966.602,183.268,965.321,182.368z
		 M940.368,180.628c-0.602,0.46-1.303,0.69-2.102,0.69h-0.301c-2,0-3.876,0.49-5.629,1.47c-1.754,0.98-3.287,2.25-4.602,3.81
		l-3.217,18.24c-0.134,0.761-0.517,1.4-1.148,1.92s-1.327,0.78-2.087,0.78s-1.354-0.261-1.783-0.78s-0.575-1.159-0.441-1.92
		l4.539-25.74c0.134-0.759,0.509-1.409,1.124-1.949c0.614-0.54,1.303-0.811,2.063-0.811s1.362,0.271,1.807,0.811
		s0.601,1.19,0.467,1.949l-0.455,2.58c3.463-3.759,6.935-5.64,10.414-5.64h0.301c0.759,0,1.343,0.261,1.752,0.78
		c0.408,0.52,0.544,1.17,0.406,1.949C941.339,179.548,940.969,180.169,940.368,180.628z M913.002,193.078
		c-0.592,0.521-1.307,0.78-2.146,0.78h-20.341c-0.16,2.72,0.479,4.88,1.917,6.479c1.438,1.601,3.696,2.4,6.776,2.4
		s5.752-0.52,8.016-1.561c0.783-0.359,1.435-0.54,1.955-0.54c0.52,0,0.98,0.221,1.384,0.66c0.402,0.44,0.554,0.94,0.456,1.5
		c-0.184,1.041-0.746,1.791-1.687,2.25c-0.941,0.46-1.78,0.851-2.517,1.17c-0.737,0.321-1.526,0.601-2.368,0.84
		c-1.892,0.52-4.019,0.78-6.378,0.78c-4.92,0-8.496-1.38-10.729-4.14s-2.902-6.68-2.007-11.76c0.775-4.4,2.561-8.061,5.356-10.98
		c3.138-3.279,7.067-4.92,11.787-4.92c4.479,0,7.752,1.521,9.816,4.56c1.939,2.841,2.538,6.36,1.798,10.561
		C913.956,191.918,913.594,192.559,913.002,193.078z M907.063,182.698c-1.36-1.359-3.161-2.04-5.4-2.04
		c-3.561,0-6.438,1.58-8.636,4.74c-0.798,1.12-1.374,2.46-1.729,4.02h17.7C909.338,186.578,908.693,184.339,907.063,182.698z
		 M875.679,204.838c-0.134,0.761-0.517,1.4-1.148,1.92s-1.327,0.78-2.087,0.78c-0.761,0-1.354-0.261-1.783-0.78
		s-0.575-1.159-0.441-1.92l2.899-16.439c0.401-2.28,0.207-4.07-0.584-5.37s-2.366-1.95-4.726-1.95c-3.521,0-7.14,1.92-10.855,5.76
		l-3.175,18c-0.134,0.761-0.517,1.4-1.148,1.92s-1.327,0.78-2.087,0.78s-1.354-0.261-1.782-0.78c-0.429-0.52-0.576-1.159-0.442-1.92
		l4.54-25.74c0.141-0.8,0.516-1.459,1.128-1.979c0.611-0.52,1.298-0.78,2.059-0.78c0.759,0,1.363,0.261,1.812,0.78
		c0.448,0.521,0.603,1.18,0.462,1.979l-0.435,2.46c1.896-1.68,3.484-2.859,4.765-3.54c2.513-1.319,4.798-1.979,6.858-1.979
		c2.06,0,3.695,0.311,4.906,0.93c1.21,0.621,2.181,1.471,2.911,2.55c1.491,2.201,1.944,4.961,1.359,8.28L875.679,204.838z
		 M842.262,193.078c-0.592,0.521-1.307,0.78-2.146,0.78h-20.34c-0.161,2.72,0.478,4.88,1.916,6.479c1.438,1.601,3.696,2.4,6.777,2.4
		c3.079,0,5.751-0.52,8.016-1.561c0.782-0.359,1.435-0.54,1.954-0.54s0.98,0.221,1.384,0.66c0.402,0.44,0.555,0.94,0.456,1.5
		c-0.184,1.041-0.745,1.791-1.687,2.25c-0.941,0.46-1.78,0.851-2.517,1.17c-0.736,0.321-1.526,0.601-2.368,0.84
		c-1.892,0.52-4.018,0.78-6.378,0.78c-4.92,0-8.496-1.38-10.729-4.14s-2.902-6.68-2.006-11.76c0.775-4.4,2.56-8.061,5.355-10.98
		c3.138-3.279,7.067-4.92,11.787-4.92c4.479,0,7.753,1.521,9.817,4.56c1.938,2.841,2.537,6.36,1.797,10.561
		C843.216,191.918,842.854,192.559,842.262,193.078z M836.323,182.698c-1.361-1.359-3.162-2.04-5.401-2.04
		c-3.561,0-6.438,1.58-8.636,4.74c-0.797,1.12-1.374,2.46-1.729,4.02h17.7C838.599,186.578,837.953,184.339,836.323,182.698z
		 M796.608,180.628c-0.602,0.46-1.303,0.69-2.102,0.69h-0.301c-2,0-3.876,0.49-5.629,1.47c-1.754,0.98-3.287,2.25-4.602,3.81
		l-3.217,18.24c-0.134,0.761-0.517,1.4-1.148,1.92s-1.327,0.78-2.087,0.78s-1.354-0.261-1.783-0.78s-0.575-1.159-0.441-1.92
		l4.539-25.74c0.134-0.759,0.509-1.409,1.124-1.949c0.614-0.54,1.303-0.811,2.063-0.811s1.362,0.271,1.807,0.811
		s0.601,1.19,0.467,1.949l-0.455,2.58c3.463-3.759,6.935-5.64,10.414-5.64h0.301c0.759,0,1.343,0.261,1.752,0.78
		c0.408,0.52,0.544,1.17,0.407,1.949C797.579,179.548,797.209,180.169,796.608,180.628z M769.242,193.078
		c-0.592,0.521-1.307,0.78-2.146,0.78h-20.341c-0.16,2.72,0.479,4.88,1.917,6.479c1.438,1.601,3.696,2.4,6.777,2.4
		c3.079,0,5.751-0.52,8.016-1.561c0.782-0.359,1.434-0.54,1.954-0.54c0.52,0,0.98,0.221,1.384,0.66c0.402,0.44,0.554,0.94,0.456,1.5
		c-0.184,1.041-0.746,1.791-1.687,2.25c-0.941,0.46-1.78,0.851-2.517,1.17c-0.737,0.321-1.526,0.601-2.368,0.84
		c-1.892,0.52-4.019,0.78-6.378,0.78c-4.92,0-8.496-1.38-10.729-4.14s-2.902-6.68-2.006-11.76c0.774-4.4,2.56-8.061,5.355-10.98
		c3.138-3.279,7.067-4.92,11.787-4.92c4.479,0,7.752,1.521,9.816,4.56c1.938,2.841,2.538,6.36,1.798,10.561
		C770.196,191.918,769.834,192.559,769.242,193.078z M763.303,182.698c-1.36-1.359-3.161-2.04-5.4-2.04
		c-3.561,0-6.438,1.58-8.636,4.74c-0.798,1.12-1.374,2.46-1.729,4.02h17.7C765.578,186.578,764.934,184.339,763.303,182.698z
		 M735.678,181.138l-10.005,7.74l8.321,14.4c0.308,0.52,0.401,1.12,0.282,1.8c-0.12,0.681-0.483,1.26-1.087,1.74
		c-0.604,0.479-1.228,0.72-1.866,0.72c-0.961,0-1.714-0.38-2.26-1.14l-7.844-14.04l-6.057,4.739l-1.365,7.74
		c-0.134,0.761-0.517,1.4-1.148,1.92s-1.327,0.78-2.087,0.78s-1.354-0.261-1.782-0.78c-0.429-0.52-0.576-1.159-0.442-1.92
		l6.866-38.939c0.135-0.76,0.51-1.41,1.124-1.95c0.615-0.54,1.304-0.811,2.063-0.811s1.362,0.271,1.807,0.811s0.601,1.19,0.466,1.95
		l-4.326,24.54l16.607-13.2c0.731-0.52,1.497-0.78,2.297-0.78s1.329,0.291,1.587,0.87c0.258,0.58,0.352,1.07,0.281,1.47
		C736.954,179.679,736.478,180.458,735.678,181.138z M696.762,203.458c-3.315,2.92-7.293,4.38-11.933,4.38
		c-4.68,0-8.143-1.46-10.388-4.38c-2.285-2.919-3.008-6.76-2.168-11.52c0.839-4.76,2.916-8.601,6.23-11.521
		c3.274-2.919,7.253-4.38,11.933-4.38c4.64,0,8.102,1.461,10.388,4.38c2.278,2.961,3.001,6.801,2.169,11.521
		S700.083,200.498,696.762,203.458z M695.785,183.478c-1.512-1.64-3.586-2.46-6.226-2.46c-4.32,0-7.663,1.941-10.027,5.82
		c-0.848,1.4-1.445,3.09-1.794,5.07c-0.349,1.979-0.347,3.67,0.007,5.069c0.352,1.401,0.923,2.53,1.711,3.391
		c0.789,0.86,1.737,1.49,2.848,1.89c1.109,0.4,2.234,0.601,3.374,0.601s2.335-0.2,3.586-0.601c1.251-0.399,2.43-1.02,3.538-1.859
		c2.505-1.96,4.086-4.801,4.742-8.521C698.179,188.278,697.593,185.479,695.785,183.478z M669.948,180.628
		c-0.603,0.46-1.303,0.69-2.103,0.69h-0.3c-2.001,0-3.877,0.49-5.63,1.47c-1.753,0.98-3.286,2.25-4.601,3.81l-3.217,18.24
		c-0.134,0.761-0.517,1.4-1.148,1.92s-1.328,0.78-2.087,0.78c-0.761,0-1.354-0.261-1.783-0.78s-0.575-1.159-0.441-1.92l4.539-25.74
		c0.133-0.759,0.508-1.409,1.123-1.949s1.304-0.811,2.063-0.811s1.362,0.271,1.807,0.811s0.6,1.19,0.467,1.949l-0.455,2.58
		c3.463-3.759,6.935-5.64,10.414-5.64h0.3c0.76,0,1.344,0.261,1.753,0.78c0.408,0.52,0.543,1.17,0.406,1.949
		C670.918,179.548,670.549,180.169,669.948,180.628z M636.649,203.758c-3.28,2.721-6.85,4.08-10.71,4.08s-7.002-1.52-9.425-4.56
		l-0.276,1.56c-0.134,0.761-0.507,1.4-1.118,1.92s-1.307,0.78-2.087,0.78c-0.78,0-1.385-0.261-1.813-0.78s-0.576-1.159-0.441-1.92
		l6.866-38.939c0.141-0.8,0.518-1.46,1.13-1.98c0.611-0.52,1.308-0.78,2.088-0.78s1.384,0.261,1.813,0.78
		c0.428,0.521,0.57,1.181,0.43,1.98l-2.591,14.699c3.495-3.039,7.183-4.56,11.063-4.56c3.879,0,6.956,1.38,9.23,4.14
		c2.503,3.041,3.332,6.96,2.486,11.761C642.434,196.818,640.218,200.758,636.649,203.758z M636.502,183.838
		c-1.443-1.8-3.645-2.7-6.604-2.7c-3.601,0-7.025,1.5-10.273,4.5l-2.222,12.601c2.189,3,5.086,4.5,8.686,4.5
		c4.561,0,7.959-2.04,10.199-6.12c0.72-1.359,1.234-2.92,1.546-4.68C638.439,188.498,637.996,185.798,636.502,183.838z"/>
</g>
<g id="elektrum_1_">
	<g id="elektrum">
		<path fill="#FFFFFF" d="M342.319,12.25h-30c-25.024,0-54.915,22.721-61.619,60.743c-3.938,22.335-1.101,39.422,8.434,50.785
			c5.54,6.603,16.205,14.473,35.553,14.473h50c7.18,0,13-5.82,13-13s-5.82-13-13-13h-50c-7.488,0-12.749-1.744-15.636-5.185
			c-3.071-3.66-4.43-10.177-4.006-18.815h58.458c25.233,0,43.323-13.696,47.211-35.743c2.442-13.854-2.12-22.809-6.376-27.882
			C369.6,18.98,360.2,12.25,342.319,12.25z M355.109,47.993c-1.668,9.46-8.938,14.257-21.606,14.257h-52.196
			c7.357-14.803,20.285-24,31.013-24h30c7.012,0,10.849,1.595,12.101,3.088C355.759,42.933,355.426,46.192,355.109,47.993z"/>
		<path fill="#FFFFFF" d="M420.687,112.25c-0.828,0-1.818-0.566-2.583-1.478c-0.848-1.011-1.266-2.262-1.088-3.265l14.106-80
			c1.247-7.07-3.474-13.813-10.545-15.06c-7.071-1.244-13.813,3.475-15.06,10.545l-14.107,80c-1.52,8.622,0.95,17.548,6.777,24.493
			c5.741,6.841,13.941,10.765,22.5,10.765c7.18,0,13-5.82,13-13S427.866,112.25,420.687,112.25z"/>
		<path fill="#FFFFFF" d="M554.319,12.25h-30c-25.024,0-54.915,22.721-61.619,60.743c-3.938,22.335-1.101,39.422,8.434,50.785
			c5.54,6.603,16.205,14.473,35.553,14.473h50c7.18,0,13-5.82,13-13s-5.82-13-13-13h-50c-7.488,0-12.749-1.744-15.636-5.185
			c-3.071-3.66-4.43-10.177-4.006-18.815h58.458c25.233,0,43.323-13.696,47.211-35.743c2.442-13.854-2.12-22.809-6.376-27.882
			C581.6,18.98,572.2,12.25,554.319,12.25z M567.109,47.993c-1.668,9.46-8.938,14.257-21.606,14.257h-52.196
			c7.357-14.803,20.285-24,31.013-24h30c7.012,0,10.849,1.595,12.101,3.088C567.759,42.933,567.426,46.192,567.109,47.993z"/>
		<path fill="#FFFFFF" d="M691.899,15.345l-54.855,46.633l6.078-34.47c1.247-7.071-3.475-13.813-10.545-15.06
			c-7.065-1.247-13.813,3.474-15.06,10.544l-17.633,100.001c-1.247,7.07,3.475,13.813,10.545,15.06
			c0.764,0.135,1.523,0.199,2.272,0.199c6.19,0,11.675-4.438,12.788-10.745l7.443-42.214l39.72,48.222
			c2.57,3.121,6.291,4.735,10.042,4.735c2.909,0,5.836-0.972,8.257-2.966c5.542-4.564,6.334-12.758,1.77-18.299l-33.046-40.121
			l49.064-41.71c5.471-4.65,6.135-12.854,1.484-18.325C705.574,11.36,697.37,10.696,691.899,15.345z"/>
		<path fill="#FFFFFF" d="M788.687,112.25h-20c-5.559,0-11.071-2.77-15.124-7.599c-4.224-5.034-6.054-11.283-5.021-17.143
			l3.396-19.258h29.092c7.18,0,13-5.82,13-13s-5.82-13-13-13h-24.507l2.534-14.372c0.003-0.015,0.005-0.029,0.008-0.044l0.058-0.327
			l-0.008-0.001c0.129-0.734,0.209-1.485,0.209-2.256c0-7.175-5.818-12.994-12.993-12.994c-6.406,0-11.718,4.641-12.786,10.741
			l-0.027-0.005l-10.58,60c-2.371,13.449,1.532,27.434,10.709,38.371c9.005,10.731,21.777,16.887,35.041,16.887h20
			c7.18,0,13-5.82,13-13S795.866,112.25,788.687,112.25z"/>
		<path fill="#FFFFFF" d="M912.319,12.25h-20c-26.167,0-55.256,24.66-59.856,50.743l-10.579,59.999l0.043,0.008
			c-0.119,0.706-0.195,1.426-0.195,2.166c0,7.175,5.818,12.993,12.994,12.993c6.487,0,11.849-4.761,12.821-10.976l10.521-59.676
			c2.411-13.672,20.657-29.258,34.251-29.258h20c7.18,0,13-5.82,13-13S919.499,12.25,912.319,12.25z"/>
		<path fill="#FFFFFF" d="M1048.319,12.256c-6.405,0-11.716,4.64-12.786,10.739l-0.017-0.003l-10.58,60
			c-2.484,14.091-15.827,29.257-39.25,29.257c-9.811,0-17.217-2.646-21.416-7.65c-3.593-4.282-4.917-10.352-3.729-17.092l10.58-60
			l-0.018-0.003c0.128-0.733,0.208-1.483,0.208-2.254c0-7.175-5.818-12.994-12.993-12.994c-6.405,0-11.717,4.64-12.786,10.739
			l-0.017-0.003l-10.58,60c-2.509,14.23,0.923,28.198,9.417,38.32c6.483,7.727,18.917,16.938,41.333,16.938
			c38.413,0,60.546-26.304,64.855-50.743l10.58-60l-0.019-0.003c0.129-0.734,0.209-1.484,0.209-2.255
			C1061.313,18.075,1055.494,12.256,1048.319,12.256z"/>
		<path fill="#FFFFFF" d="M1124.319,12.25c-26.381,0-43.46,14.469-48.093,40.742l-12.343,70.001l0.018,0.003
			c-0.128,0.733-0.208,1.483-0.208,2.254c0,7.176,5.818,12.994,12.994,12.994c6.404,0,11.716-4.641,12.785-10.74l0.017,0.003
			l12.343-70c2.443-13.858,8.748-19.257,22.487-19.257h14.507l-14.942,84.742c-1.246,7.071,3.475,13.813,10.545,15.061
			c0.765,0.135,1.523,0.199,2.273,0.199c6.189,0,11.675-4.438,12.787-10.744l15.738-89.258h33.599l-14.942,84.742
			c-1.246,7.071,3.475,13.813,10.545,15.061c0.765,0.135,1.523,0.199,2.273,0.199c6.189,0,11.675-4.438,12.787-10.744
			l20.323-115.258H1124.319z"/>
	</g>
</g>
</svg>
