<?xml version="1.0" encoding="utf-8"?>
<!-- Generator: Adobe Illustrator 16.0.3, SVG Export Plug-In . SVG Version: 6.00 Build 0)  -->
<!DOCTYPE svg PUBLIC "-//W3C//DTD SVG 1.1//EN" "http://www.w3.org/Graphics/SVG/1.1/DTD/svg11.dtd">
<svg version="1.1" xmlns="http://www.w3.org/2000/svg" xmlns:xlink="http://www.w3.org/1999/xlink" x="0px" y="0px"
	 width="1131.491px" height="283.46px" viewBox="0 0 1131.491 283.46" enable-background="new 0 0 1131.491 283.46"
	 xml:space="preserve">
<g id="Logo">
	<path fill="#FFFFFF" d="M283.46,141.73v85.04c0,31.311-25.38,56.69-56.69,56.69H56.69C25.38,283.46,0,258.08,0,226.77V56.69
		C0,25.38,25.38,0,56.69,0h85.04v56.69H99.21c-23.48,0-42.52,19.04-42.52,42.52c0,23.49,19.04,42.52,42.52,42.52h42.52v42.52
		c0,23.48,19.04,42.52,42.52,42.52c23.49,0,42.52-19.04,42.52-42.52v-42.52H283.46z"/>
	<path fill="#FFFFFF" d="M283.46,56.69h-56.69V0C258.08,0,283.46,25.38,283.46,56.69z"/>
</g>
<g id="Galmed">
	<path fill="#FFFFFF" d="M1080.243,171.046c-7.283,0-14.455-1.394-20.741-4.03c-22.724-9.381-35.381-29.769-34.705-55.927
		c0.424-15.023,6.07-28.676,15.901-38.452c10.043-9.986,24.086-15.486,39.545-15.486c10.938,0,20.912,3.347,28.151,9.14V37.8
		c0-6.355,4.965-11.148,11.549-11.148c6.583,0,11.548,4.792,11.548,11.148v120.798c0,6.728-4.682,11.248-11.648,11.248
		c-6.023,0-10.03-3.367-10.879-8.941C1100.524,168.225,1089.38,171.046,1080.243,171.046z M1061.123,142.102
		c4.767,3.765,11.016,6.062,18.087,6.648c14.089-0.065,29.185-8.506,29.185-26.951V106c0-14.889-11.362-25.796-27.644-26.552
		c-13.532,0.033-25.355,7.376-30.163,18.731c-1.546,4.083-2.529,8.957-2.699,13.384
		C1047.694,124.294,1052.146,134.602,1061.123,142.102z"/>
	<path fill="#FFFFFF" d="M958.668,169.854c-0.362,0-0.725-0.003-1.087-0.008c-17.759,0-34.179-7.252-43.856-19.4
		c-12.104-15.912-15.605-37.603-9.198-56.683c5.814-17.313,19.073-30.017,36.377-34.854c4.837-1.441,10.162-2.182,15.759-2.182
		c5.576,0,11.152,0.729,16.574,2.167c24.751,6.79,39.778,26.963,40.255,53.989c0.296,3.7-0.74,7.048-2.927,9.442
		c-2.498,2.735-6.238,4.122-11.118,4.122h-73.619c4.227,12.88,16.418,21.503,31.22,21.503c6.46,0,15.833-1.291,23.883-7.422
		c2.377-2.111,5.314-3.271,8.292-3.271c4.548,0,8.574,2.581,10.258,6.575c1.743,4.135,0.55,8.895-3.191,12.732l-0.142,0.138
		C987.073,165.184,973.763,169.854,958.668,169.854z M924.669,105.751h65.713c-2.535-13.021-11.071-22.452-23.489-25.636
		c-5.981-1.63-13.434-1.55-19.248,0.16l-0.119,0.034C935.367,83.5,927.063,92.859,924.669,105.751z"/>
	<path fill="#FFFFFF" d="M872.846,169.847c-6.954,0-11.447-4.415-11.447-11.248v-53c-0.337-14.41-11.838-25.351-26.752-25.351
		c-19.325,0-33.352,14.447-33.352,34.351v44c0,6.623-4.79,11.248-11.647,11.248c-6.858,0-11.648-4.625-11.648-11.248V109
		c0-10.743-4.418-19.941-11.817-24.606c-4.301-2.647-9.198-3.946-14.934-3.946c-16.296,0-33.151,12.4-33.151,33.151v45
		c0,7.27-5.779,11.073-11.487,11.073c-2.906,0-5.662-0.955-7.762-2.688c-2.48-2.049-3.847-5.026-3.847-8.385V69.2
		c0-6.202,5.135-11.248,11.447-11.248c6.412,0,11.248,4.835,11.248,11.248v1.278c8.411-8.154,19.882-12.526,33.352-12.526
		c17.681,0,32.84,8.063,40.822,21.137c8.747-13.223,24.19-21.137,42.177-21.137c24.456,0,50.447,16.489,50.447,47.047v53.599
		C884.494,165.221,879.704,169.847,872.846,169.847z"/>
	<path fill="#FFFFFF" d="M662.85,169.446c-6.641,0-11.648-4.75-11.648-11.048V38.4c0-6.298,5.008-11.048,11.648-11.048
		c6.313,0,11.447,4.956,11.447,11.048v119.998C674.297,164.49,669.162,169.446,662.85,169.446z"/>
	<path fill="#FFFFFF" d="M578.85,171.046c-11.517,0-22.913-3.423-31.269-9.391c-15.988-10.938-24.826-29.394-24.177-50.586
		c0.447-22.619,13.515-42.205,33.302-49.888c6.053-2.729,12.911-4.056,20.964-4.056c0.692,0,1.39,0.009,2.091,0.028
		c11.146,0.196,20.623,3.346,27.622,9.05c1.248-4.986,5.452-8.251,11.065-8.251c6.75,0,11.648,4.814,11.648,11.448v88.799
		c0,6.74-4.79,11.448-11.648,11.448c-6.06,0-10.359-3.604-11.269-9.178C599.14,167.444,588.054,171.046,578.85,171.046z
		 M559.502,142.08c4.957,3.777,11.217,6.082,18.119,6.67c17.261-0.068,28.503-10.421,29.38-27.06V106
		c0-15.833-10.342-25.755-27.666-26.553l-0.432-0.003c-13.288,0-25.228,7.528-29.709,18.733l-0.04,0.096
		c-1.5,3.5-2.469,8.344-2.659,13.29C546.104,124.25,550.48,134.528,559.502,142.08z"/>
	<path fill="#FFFFFF" d="M453.45,207.846c-17.482,0-30.163-4.614-41.117-14.959c-3.866-3.769-5.102-8.558-3.353-12.857
		c1.737-4.27,6.062-7.139,10.762-7.139c2.942,0,5.794,1.157,8.061,3.264c9,6.805,15.263,8.995,25.647,8.995
		c14.657,0,30.298-6.441,30.932-24.412c-7.136,6.218-16.724,9.725-27.661,9.908c-0.537,0.014-1.113,0.022-1.687,0.022
		c-7.66,0-14.928-1.394-21.602-4.141c-19.619-8.017-32.588-27.583-33.029-49.844c-0.668-25.835,12.276-46.783,34.626-56.01
		c6.317-2.446,13.348-3.721,20.42-3.721c9.254,0,20.505,2.544,28.893,9.156c1.182-5.104,5.351-8.356,11.107-8.356
		c6.857,0,11.647,4.708,11.647,11.448v90.399c0,15.018-5.521,27.518-15.967,36.149C481.553,203.662,468.522,207.846,453.45,207.846z
		 M436.584,85.733c-9.078,7.454-13.481,17.727-13.088,30.536c0.189,4.913,1.158,9.756,2.658,13.256l0.04,0.096
		c4.552,11.379,16.174,18.733,29.608,18.733l0.433-0.003c15.834-0.738,27.766-12.141,27.766-26.552V106
		c0-11.532-4.731-19.223-14.465-23.513c-4.457-2.005-9.306-3.059-14.051-3.059C448.545,79.428,442.011,81.608,436.584,85.733z"/>
</g>
<g id="Apteka">
	<path fill="#FFFFFF" d="M719.576,226.381c-1.415,0-2.515,0.73-2.992,1.884c-1.797-1.314-4.143-2.039-6.863-2.087
		c-2.321-0.063-4.331,0.285-5.978,1.038c-5.189,2-8.617,7.121-8.733,13.032c-0.17,5.519,2.137,10.328,6.303,13.179
		c2.187,1.562,5.163,2.457,8.167,2.457c2.262,0,4.957-0.831,7.029-2.443c0.429,1.27,1.572,2.086,3.067,2.086
		c1.914,0,3.303-1.367,3.303-3.252v-22.642C722.879,227.779,721.459,226.381,719.576,226.381z M709.18,249.533
		c-1.699-0.147-3.235-0.716-4.403-1.61c-2.229-1.858-3.311-4.394-3.214-7.527c0.047-1.222,0.284-2.413,0.664-3.301
		c1.093-2.732,4.014-4.568,7.268-4.568h0.076c2.03,0.09,6.754,0.898,6.754,6.438l0.002,3.958
		C716.123,246.981,713.387,249.511,709.18,249.533z"/>
	<path fill="#FFFFFF" d="M801.229,227.18c-1.644-0.689-3.517-1.054-5.418-1.054c-2.249,0-4.962,0.653-7.122,2.324
		c-0.404-1.256-1.484-2.019-2.975-2.019c-1.976,0-3.303,1.286-3.303,3.201v31.668c0,1.811,1.409,3.175,3.277,3.175
		s3.277-1.364,3.277-3.175v-7.44c1.841,1.257,4.237,1.972,6.845,1.972c8.154,0,14.24-5.919,14.47-14.076
		C810.455,235.041,807.068,229.591,801.229,227.18z M796.061,232.477c1.737,0.146,3.267,0.71,4.402,1.61
		c2.214,1.845,3.313,4.388,3.265,7.526c-0.041,1.085-0.293,2.327-0.655,3.279c-1.172,2.788-4.082,4.589-7.353,4.59
		c-3.977-0.175-6.754-2.822-6.754-6.438v-4.029C788.966,234.547,792.633,232.499,796.061,232.477z"/>
	<path fill="#FFFFFF" d="M880.252,249.071c-0.23,0.139-1.088,0.359-1.668,0.359c-1.323,0-2.511-0.348-2.511-4.55v-12.354h4.143
		c0.915,0,1.738-0.334,2.316-0.941c0.529-0.556,0.82-1.295,0.82-2.081c0-1.465-1.099-3.021-3.137-3.021h-4.143v-4.5
		c0-1.843-1.404-3.232-3.267-3.232c-1.846,0-3.237,1.39-3.237,3.232v4.5h-1.949c-2.051,0-3.157,1.577-3.157,3.062
		c0,0.789,0.297,1.524,0.835,2.072c0.408,0.415,1.143,0.91,2.322,0.91h1.949v12.354c0,8.884,4.902,10.748,9.015,10.748
		c1.358,0,2.969-0.124,4.615-1.046c1.424-0.791,2.102-2.237,1.727-3.684C884.424,248.965,882.205,247.955,880.252,249.071z"/>
	<path fill="#FFFFFF" d="M957.053,226.633c-2.829-0.752-5.907-0.745-8.418,0.005c-4.521,1.263-7.983,4.58-9.501,9.101
		c-1.669,4.969-0.757,10.617,2.399,14.768c2.53,3.176,6.814,5.071,11.438,5.071l0.287,0.002c3.931,0,7.404-1.223,9.826-3.489
		c1.051-1.078,1.381-2.427,0.882-3.608c-0.481-1.142-1.629-1.88-2.922-1.88c-0.837,0-1.66,0.322-2.326,0.91
		c-1.977,1.501-4.284,1.817-5.878,1.817c-3.454,0-6.327-1.913-7.485-4.817h18.296c1.334,0,2.368-0.391,3.072-1.162
		c0.628-0.688,0.926-1.641,0.841-2.688C967.412,233.639,963.494,228.399,957.053,226.633z M960.927,238.568h-15.933
		c0.679-2.953,2.665-5.087,5.543-5.843c1.425-0.42,3.255-0.439,4.73-0.039C958.175,233.433,960.213,235.584,960.927,238.568z"/>
	<path fill="#FFFFFF" d="M1037.757,239.664l8.518-7.881c1.06-1.004,1.399-2.336,0.909-3.565c-0.486-1.222-1.714-2.042-3.055-2.042
		c-0.875,0-1.714,0.337-2.445,0.994l-9.207,8.594l-1.108,1.093v-15.025c0-1.701-1.409-2.984-3.277-2.984s-3.277,1.283-3.277,2.984
		v30.494c0,0.963,0.379,1.816,1.068,2.402c0.586,0.499,1.359,0.773,2.179,0.773c1.886,0,3.308-1.365,3.308-3.176v-7.323l1.481-1.331
		l9.395,10.542c0.686,0.885,1.639,1.372,2.686,1.372h0.001c1.279,0,2.451-0.734,2.985-1.87c0.524-1.118,0.317-2.413-0.597-3.514
		L1037.757,239.664z"/>
	<path fill="#FFFFFF" d="M1128.188,226.381c-1.415,0-2.515,0.73-2.992,1.884c-1.797-1.314-4.143-2.039-6.863-2.087
		c-2.318-0.063-4.332,0.285-5.978,1.038c-5.189,2-8.617,7.121-8.733,13.032c-0.17,5.519,2.137,10.328,6.303,13.179
		c2.187,1.562,5.163,2.457,8.167,2.457c2.262,0,4.957-0.831,7.029-2.443c0.429,1.27,1.572,2.086,3.067,2.086
		c1.914,0,3.303-1.367,3.303-3.252v-22.642C1131.491,227.779,1130.071,226.381,1128.188,226.381z M1117.792,249.533
		c-1.699-0.147-3.235-0.716-4.403-1.61c-2.229-1.858-3.311-4.394-3.214-7.527c0.047-1.222,0.284-2.413,0.664-3.301
		c1.093-2.732,4.014-4.568,7.268-4.568h0.076c2.03,0.09,6.754,0.898,6.754,6.438l0.002,3.958
		C1124.735,246.981,1121.999,249.511,1117.792,249.533z"/>
</g>
</svg>
