<?xml version="1.0" encoding="utf-8"?>
<!-- Generator: Adobe Illustrator 16.0.3, SVG Export Plug-In . SVG Version: 6.00 Build 0)  -->
<!DOCTYPE svg PUBLIC "-//W3C//DTD SVG 1.1//EN" "http://www.w3.org/Graphics/SVG/1.1/DTD/svg11.dtd">
<svg version="1.1" xmlns="http://www.w3.org/2000/svg" xmlns:xlink="http://www.w3.org/1999/xlink" x="0px" y="0px" width="566.5px"
	 height="242.6px" viewBox="0 0 566.5 242.6" enable-background="new 0 0 566.5 242.6" xml:space="preserve">
<g id="Duza_ramka">
	<path fill="#FFFFFF" d="M566.01,86.06l-15-60l-0.21-0.85l-0.39-0.79C549.91,23.43,537.91,0,513.25,0H53.61
		C28.59,0,16.59,23.43,16.09,24.42l-0.39,0.79l-0.21,0.85l-15,60L0,88l0.49,1.94l15,60l0.21,0.851l0.39,0.789
		C16.59,152.57,28.58,176,52.71,176h60.045l0.495,1.979c0,0,5,20,20,20h46.413l4.627,18.49c0.15,0.63,1.71,6.729,5.72,12.81
		c5.75,8.71,13.7,13.32,22.98,13.32h140.38c9.279,0,17.229-4.61,22.979-13.32c3.95-5.989,5.511-11.97,5.721-12.819l4.627-18.48
		h46.553c15,0,20-20,20-20l0.495-1.979h59.505c24.66,0,36.66-23.431,37.16-24.421l0.39-0.789l0.21-0.851l15-60L566.5,88
		L566.01,86.06z M133.25,189.98c-8.39,0-12.21-13.84-12.24-13.95L121.004,176h53.159l3.499,13.979H133.25z M378.2,215.47
		c-0.23,0.95-5.84,23.13-24.83,23.13H212.99c-18.97,0-24.6-22.18-24.82-23.1l-12.79-51.091c-0.3-1.18-2.74-11.699,3.46-19.649
		c2.62-3.36,7.71-7.351,17.09-7.351h174.5c7.83,0,13.73,2.551,17.521,7.57c5.81,7.69,3.56,17.48,3.01,19.51L378.2,215.47z
		 M170.703,160.01H52.71c-12.49,0-20.25-12.021-21.95-14.95L16.49,88l14.27-57.07C32.47,27.97,40.18,16,53.6,16h459.65
		c12.95,0,20.78,12.04,22.49,14.95L550,88l-14.26,57.05c-1.74,2.97-9.57,14.96-22.49,14.96H395.736
		c0.37-4.754-0.144-11.552-4.587-17.44c-3.159-4.18-9.319-9.16-20.72-9.16h-174.5c-10.99,0-17.07,4.83-20.24,8.881
		C171.021,148.276,170.403,155.229,170.703,160.01z M445.49,176.03c-0.04,0.14-3.86,13.95-12.24,13.95H388.7L392.201,176h53.295
		L445.49,176.03z M562.13,88.97l-15,60l-0.11,0.43l-0.189,0.391c-0.46,0.899-11.36,22.21-33.58,22.21H393.202l1-3.99H513.25
		c20,0,30-20,30-20l15-60.01l-15-60c0,0-10-20-30-20H53.6C33.25,8,23.25,28,23.25,28l-15,60l15,60.01c0,0,10,20,29.46,20h119.453
		l0.999,3.99H52.71c-21.68,0-32.58-21.311-33.04-22.21l-0.19-0.391l-0.11-0.43l-15-60L4.13,88l0.24-0.97l15-60l0.11-0.43l0.19-0.39
		C20.13,25.3,31.04,4,53.61,4h459.64c22.22,0,33.12,21.3,33.58,22.21l0.189,0.39l0.11,0.43l15,60l0.24,0.97L562.13,88.97z"/>
</g>
<g id="_x34_x4">
	<polygon fill-rule="evenodd" clip-rule="evenodd" fill="#FFFFFF" points="247.2,182.74 244.17,194.92 229.59,194.92 	"/>
	<polygon fill-rule="evenodd" clip-rule="evenodd" fill="#FFFFFF" points="340.22,182.74 337.189,194.92 322.61,194.92 	"/>
	<path fill="#FFFFFF" d="M381.57,149.8c-2.23-2.95-5.881-4.391-11.141-4.391h-174.5c-5.01,0-8.54,1.4-10.79,4.271
		c-3.91,5.03-2.02,12.67-2,12.75l12.79,51.13c0.05,0.19,4.32,17.04,17.06,17.04h140.38c12.75,0,17.01-16.84,17.05-17.01l12.82-51.19
		C383.32,162.09,385.3,154.75,381.57,149.8z M239.28,214.5l1.63-6.521h-32.58c-2.74,0-4.76-1.729-5.05-4.31s1.22-5.48,3.76-7.24
		l47.23-32.64c2.35-1.62,5.14-1.971,7.16-0.9c2.02,1.08,2.91,3.38,2.28,5.92l-2.46,9.93h-10.4c-0.58,2.301,0.59,3.25,0.59,3.25
		l15.22,16.24L243.21,214.5H239.28z M287.12,214.51l-7.28-7.771l-11.2,7.771H248.4l23.47-16.28l-15.22-16.24h20.15l7.28,7.771
		l11.2-7.771h20.229l-23.46,16.28l15.22,16.24H287.12z M359.99,207.98h-13.03l-1.63,6.521H332.3l1.63-6.521h-27.58l-8.63-9.22
		c0.61-0.88,1.41-1.681,2.34-2.33l47.23-32.64c2.35-1.62,5.14-1.971,7.16-0.9c2.02,1.08,2.91,3.38,2.279,5.92l-6.51,26.11h13.03
		L359.99,207.98z"/>
</g>
<g id="KRATEX">
	<path fill="#FFFFFF" d="M522.022,56.668h-8.943h-11.142h-1.023l-0.811,0.626l-28.519,22.027l-16.801-21.5l-0.901-1.153h-1.463
		h-10.81h-6.225l3.878,4.869l19.713,24.75l-36.178,27.65l-7.045,5.384h8.866h11.124h1.04l0.816-0.644l30.981-24.409l18.837,23.909
		l0.9,1.144h1.456h10.716h6.193l-3.84-4.86l-21.416-27.104l33.46-25.294L522.022,56.668L522.022,56.668z"/>
	<path fill="#FFFFFF" d="M426.713,56.668h-3.84h-55.532h-2.344l-0.567,2.274l-14.125,56.652l-0.929,3.726h3.84h55.573h2.344
		l0.567-2.274l1.656-6.641l0.929-3.726h-3.84h-44.222l3.347-13.424h43.643h2.344l0.567-2.274l1.655-6.641l0.929-3.726h-3.84h-42.146
		l2.819-11.307h45.676h2.344l0.567-2.274l1.656-6.641L426.713,56.668L426.713,56.668z"/>
	<path fill="#FFFFFF" d="M360.697,56.668h-3.84h-64.373h-2.344l-0.567,2.274l-1.655,6.641l-0.929,3.726h3.84h24.674l-11.541,46.286
		l-0.929,3.726h3.84h7.512h2.344l0.567-2.274l11.902-47.737h26.004h2.344l0.567-2.274l1.655-6.641L360.697,56.668L360.697,56.668z"
		/>
	<path fill="#FFFFFF" d="M276.888,56.668h-2.198h-12.079h-1.424l-0.9,1.103l-46.247,56.652l-3.998,4.897h6.322h8.541h1.424
		l0.9-1.103l8.858-10.851h42.191l3.076,9.848l0.657,2.105h2.206h8.391h4.096l-1.235-3.904l-17.917-56.653L276.888,56.668
		L276.888,56.668z M246.277,94.727l20.408-24.906l7.763,24.906H246.277L246.277,94.727z"/>
	<path fill="#FFFFFF" d="M189.364,56.668h-35.32H151.7l-0.567,2.274l-14.125,56.652l-0.929,3.726h3.84h7.512h2.344l0.567-2.274
		l4.866-19.515h25.469c5.608,0,9.347,0.027,11.113,0.082c1.145,0.048,2.224,0.159,3.173,0.328c1.681,0.284,2.333,0.766,2.082,3.021
		c-0.094,0.862-0.521,3.15-2.029,9.195l-1.355,5.437l-0.929,3.726h3.84h7.512h2.344l0.567-2.274l2.007-8.052
		c1.26-5.054,1.897-8.261,2.007-10.093c0.149-2.635-0.526-4.861-1.931-6.57c0.923-0.523,1.76-1.111,2.508-1.764
		c2.588-2.264,4.636-6.54,6.266-13.074c1.215-4.873,1.454-8.647,0.729-11.541c-0.843-3.361-3.375-7.573-10.648-8.553
		C204.315,56.908,198.239,56.668,189.364,56.668L189.364,56.668z M162.244,69.309h25.446c7.198,0,9.283,0.021,9.765,0.039
		c5.972,0.31,7.189,1.203,7.238,1.241l0,0c-0.006,0,0.725,1.017-0.35,5.328c-1.355,5.434-2.956,7.02-3.789,7.481
		c-0.854,0.477-3.08,1.295-8.536,1.493h-9.708h-23.95L162.244,69.309L162.244,69.309z"/>
	<path fill="#FFFFFF" d="M146.307,56.668h-11.428h-13.216h-0.794l-0.69,0.393l-42.117,23.97h-5.244l5.146-20.637l0.929-3.726h-3.84
		H67.54h-2.344l-0.567,2.274l-14.125,56.652l-0.929,3.726h3.84h7.512h2.344l0.567-2.274l5.828-23.375h6.491l31.592,25.002
		l0.818,0.647h1.043h13.399h8.708l-6.861-5.363L91.271,87.702l45.081-25.42L146.307,56.668L146.307,56.668z"/>
</g>
</svg>
