<?xml version="1.0" encoding="utf-8"?>
<!-- Generator: Adobe Illustrator 16.0.3, SVG Export Plug-In . SVG Version: 6.00 Build 0)  -->
<!DOCTYPE svg PUBLIC "-//W3C//DTD SVG 1.1//EN" "http://www.w3.org/Graphics/SVG/1.1/DTD/svg11.dtd">
<svg version="1.1" id="Warstwa_1" xmlns="http://www.w3.org/2000/svg" xmlns:xlink="http://www.w3.org/1999/xlink" x="0px" y="0px"
	 width="871.557px" height="90.143px" viewBox="0 0 871.557 90.143" enable-background="new 0 0 871.557 90.143"
	 xml:space="preserve">
<g>
	<g>
		<g>
			<path fill="#FFFFFF" d="M2.09,90.143c-0.685,0-1.251-0.536-1.288-1.224C0.179,77.256-2.444,18.89,7.089,15.437
				c1.908-0.696,3.928,0.375,6.019,3.168c0.072,0.098,0.131,0.204,0.173,0.319c0.741,1.969,18.02,48.441,15.281,68.285
				c-0.017,0.134-0.056,0.269-0.115,0.386c-0.408,0.839-1.542,2.19-3.274,1.911c-1.638-0.257-5.907-0.922-11.881-30.981
				c0.713,12.714,0.855,25.365-0.933,29.685c-0.209,0.503-0.709,0.794-1.257,0.794c-0.548-0.033-1.014-0.402-1.168-0.922
				c-0.307-1.051-7.542-25.856-6.178-43.146c0.056-0.71,0.69-1.247,1.383-1.185c0.71,0.056,1.241,0.676,1.185,1.386
				C5.368,57.207,8.88,73.575,10.965,81.94C12.041,69.4,9.718,41.934,8.07,27.007c-0.073-0.698,0.425-1.33,1.124-1.414
				c0.695-0.098,1.335,0.394,1.433,1.09c7.997,56.318,13.845,60.095,14.938,60.275c0.162,0.022,0.369-0.201,0.483-0.357
				c2.383-18.777-13.943-63.438-15.111-66.598c-1.229-1.607-2.305-2.389-2.97-2.149C2.292,19.911,1.864,60.57,3.376,88.78
				c0.036,0.716-0.509,1.319-1.221,1.358C2.132,90.138,2.11,90.143,2.09,90.143z"/>
		</g>
		<g>
			<path fill="#FFFFFF" d="M55.503,59.576c-7.804,0-16.653-0.458-26.334-1.688c-0.704-0.089-1.205-0.737-1.115-1.437
				c0.092-0.709,0.737-1.212,1.438-1.123c34.753,4.426,58.551-1.251,61.23-1.934c1.744-1.911-2.593-17.158-9.489-33.309
				C65.727,12.484,9.816,17.75,9.246,17.801c-0.715,0.084-1.335-0.447-1.402-1.154C7.776,15.937,8.296,15.312,9,15.241
				c2.372-0.226,58.235-5.485,73.834,2.769c0.26,0.137,0.464,0.36,0.581,0.635c4.292,9.986,13.722,33.588,8.614,36.997
				c-0.117,0.078-0.24,0.134-0.371,0.167C91.477,55.86,77.747,59.576,55.503,59.576z"/>
		</g>
		<g>
			<path fill="#FFFFFF" d="M56.598,90.015c-7.563,0-16.645-0.229-27.561-0.788c-0.707-0.033-1.252-0.638-1.215-1.353
				c0.036-0.704,0.615-1.224,1.349-1.219c55.03,2.817,62.572-2.827,62.862-3.067c2.889-2.342,0.45-15.965-2.183-24.918
				c-0.198-0.682,0.19-1.396,0.872-1.599c0.679-0.195,1.397,0.19,1.602,0.872c1.137,3.873,6.563,23.409,1.388,27.595
				C93.268,86.013,88.289,90.015,56.598,90.015z"/>
		</g>
		<g>
			<path fill="#FFFFFF" d="M74.349,69.792c-0.679,0-1.19-0.677-1.956-1.979c-2.873,0.688-8.701,1.621-11.696-1.18
				c-0.274-0.257-0.425-0.62-0.408-0.988c0.129-3.442-0.031-7.03-0.447-10.037c-0.556,0.403-1.338,0.308-1.771-0.234
				c-0.188-0.235-0.417-0.515-0.671-0.815c-2.654-3.202-4.604-5.79-3.59-7.634c0.534-0.973,1.674-1.342,3.39-1.129
				c0.111,0.017,0.218,0.039,0.327,0.062c0.039-0.018,0.084-0.022,0.123-0.033c3.814-0.884,12.897-2.593,14.985,0.541
				c0.17,0.252,0.24,0.554,0.207,0.861c-0.405,3.548-0.983,13.267,0.886,17.636c0.456,0.045,0.869,0.33,1.059,0.771
				c0.911,2.096,1.464,3.364,0.212,3.984C74.763,69.735,74.548,69.792,74.349,69.792z M62.879,65.085
				c1.967,1.274,5.742,0.883,8.31,0.347c-2.023-5.409-1.229-15.262-0.972-17.871c-1.21-0.671-5.477-0.503-10.048,0.363
				C62.955,52.221,62.969,61.721,62.879,65.085z M56.162,48.31c0.341,1.123,2.434,3.654,3.197,4.577
				c-0.592-2.627-1.434-4.398-2.493-4.532C56.542,48.31,56.313,48.304,56.162,48.31z"/>
		</g>
		<g>
			<path fill="#FFFFFF" d="M64.631,14.987c-0.19,0-0.383-0.045-0.564-0.128c-4.174-2.04-6.452-9.07-7.021-11.06
				c-3.068-1.975-13.023-1.201-19.433-0.134c-0.623,5.412-6.955,10.578-7.245,10.811c-0.553,0.441-1.361,0.36-1.811-0.196
				c-0.441-0.553-0.354-1.363,0.196-1.808c1.816-1.47,6.497-6.102,6.332-9.841c-0.025-0.646,0.425-1.209,1.056-1.324
				c1.85-0.335,18.212-3.171,22.856,0.738c0.204,0.17,0.349,0.399,0.417,0.659c0.589,2.238,2.783,8.374,5.786,9.838
				c0.64,0.313,0.9,1.084,0.59,1.724C65.567,14.722,65.106,14.987,64.631,14.987z"/>
		</g>
		<g>
			<path fill="#FFFFFF" d="M36.369,13.853c-0.276,0-0.553-0.09-0.791-0.271c-0.559-0.436-0.662-1.243-0.221-1.808
				c0.729-0.942,0.461-5.384-0.249-8.947c-0.14-0.699,0.313-1.375,1.009-1.514c0.69-0.137,1.375,0.31,1.517,1.011
				c0.397,1.998,1.562,8.704-0.249,11.032C37.132,13.68,36.754,13.853,36.369,13.853z"/>
		</g>
		<g>
			<path fill="#FFFFFF" d="M59.532,14.532c-0.369,0-0.735-0.156-0.989-0.461c-2.571-3.076-1.629-9.975-1.509-10.752
				c0.104-0.701,0.766-1.182,1.461-1.081c0.702,0.104,1.188,0.757,1.082,1.464c-0.369,2.493-0.436,7.061,0.942,8.718
				c0.455,0.551,0.38,1.361-0.162,1.816C60.116,14.437,59.823,14.532,59.532,14.532z"/>
		</g>
	</g>
	<g>
		<path fill="#FFFFFF" d="M120.685,7.41c3.805-1.305,8.371-2.582,13.699-3.833c5.326-1.247,12.065-1.873,20.221-1.873
			c4.457,0,8.858,0.355,13.208,1.057c4.348,0.709,8.372,2.151,12.068,4.326c2.825-1.417,6.141-2.664,9.947-3.756
			c3.806-1.082,8.097-1.626,12.883-1.626c4.239,0,8.615,0.405,13.127,1.221c4.51,0.816,8.586,2.529,12.227,5.139
			c3.644,2.607,6.631,6.359,8.972,11.252c2.336,4.892,3.507,11.361,3.507,19.402v48.76c-2.828,0.542-5.382,0.899-7.665,1.057
			c-2.283,0.167-4.294,0.245-6.035,0.245c-1.85,0-3.915-0.078-6.198-0.245c-2.282-0.157-4.839-0.515-7.661-1.057V41.654
			c0-5.762-0.981-9.891-2.934-12.395c-1.959-2.496-5.169-3.747-9.623-3.747c-1.529,0-3.018,0.159-4.485,0.486
			c-1.467,0.325-2.476,0.601-3.018,0.816c0.978,3.806,1.467,8.153,1.467,13.046v47.617c-2.828,0.542-5.381,0.899-7.664,1.057
			c-2.283,0.167-4.297,0.245-6.03,0.245c-1.853,0-3.917-0.078-6.2-0.245c-2.284-0.157-4.839-0.515-7.665-1.057V41.654
			c0-5.762-0.925-9.891-2.772-12.395c-1.853-2.496-5.001-3.747-9.458-3.747c-1.196,0-2.476,0.109-3.831,0.324
			c-1.364,0.221-2.205,0.436-2.532,0.651v60.99c-2.825,0.542-5.381,0.899-7.662,1.057c-2.282,0.167-4.297,0.245-6.035,0.245
			c-1.85,0-3.912-0.078-6.194-0.245c-2.286-0.157-4.84-0.515-7.667-1.057V7.41z"/>
		<path fill="#FFFFFF" d="M296.477,33.012c-0.109-1.956-0.651-3.59-1.632-4.893c-0.975-1.305-2.229-2.308-3.752-3.017
			c-1.521-0.707-3.208-1.193-5.055-1.467c-1.847-0.268-3.747-0.405-5.706-0.405c-2.607,0-5.655,0.299-9.131,0.895
			c-3.481,0.601-7.069,1.548-10.763,2.853c-0.978-1.844-1.821-3.532-2.528-5.052c-0.71-1.522-1.249-3.073-1.632-4.649
			c-0.38-1.573-0.651-3.205-0.816-4.893c-0.162-1.685-0.24-3.612-0.24-5.789c5.216-1.738,10.406-3.04,15.572-3.912
			c5.164-0.869,9.811-1.307,13.942-1.307c5.65,0,10.76,0.684,15.326,2.042c4.568,1.361,8.452,3.451,11.662,6.276
			c3.208,2.828,5.681,6.44,7.421,10.844c1.735,4.404,2.607,9.648,2.607,15.736v47.78c-4.129,1.195-9.131,2.392-15.001,3.588
			c-5.871,1.195-12.065,1.8-18.592,1.8c-5.656,0-10.842-0.521-15.569-1.554c-4.734-1.028-8.785-2.693-12.152-4.975
			c-3.372-2.285-6.007-5.297-7.907-9.053c-1.906-3.744-2.853-8.337-2.853-13.78c0-5.32,1.14-9.724,3.423-13.205
			c2.283-3.479,5.219-6.25,8.804-8.318c3.587-2.065,7.555-3.506,11.906-4.32c4.347-0.816,8.583-1.224,12.721-1.224H296.477z
			 M296.477,50.299h-9.296c-3.806,0-7.011,0.815-9.621,2.447c-2.609,1.632-3.912,3.912-3.912,6.852c0,2.168,0.486,3.878,1.464,5.13
			c0.98,1.252,2.204,2.202,3.671,2.855c1.467,0.654,3.04,1.09,4.73,1.303c1.682,0.223,3.23,0.329,4.644,0.329
			c0.978,0,2.391-0.106,4.241-0.329c1.847-0.213,3.208-0.431,4.077-0.648V50.299z"/>
		<path fill="#FFFFFF" d="M335.125,7.41c3.802-1.305,8.421-2.582,13.862-3.833c5.434-1.247,12.229-1.873,20.383-1.873
			c4.783,0,9.564,0.405,14.354,1.221c4.777,0.816,9.1,2.529,12.961,5.139c3.859,2.607,7.011,6.359,9.458,11.252
			c2.445,4.892,3.669,11.361,3.669,19.402v48.76c-2.831,0.542-5.382,0.899-7.665,1.057c-2.283,0.167-4.295,0.245-6.033,0.245
			c-1.85,0-3.915-0.078-6.197-0.245c-2.283-0.157-4.836-0.515-7.667-1.057V41.654c0-5.762-1.086-9.891-3.261-12.395
			c-2.174-2.496-5.487-3.747-9.944-3.747c-1.201,0-2.475,0.109-3.836,0.324c-1.358,0.221-2.199,0.436-2.523,0.651v60.99
			c-2.831,0.542-5.384,0.899-7.667,1.057c-2.286,0.167-4.297,0.245-6.032,0.245c-1.85,0-3.915-0.078-6.198-0.245
			c-2.283-0.157-4.84-0.515-7.664-1.057V7.41z"/>
		<path fill="#FFFFFF" d="M440.304,26.323h-24.133c-0.547-2.171-0.899-4.211-1.062-6.111c-0.162-1.903-0.243-3.722-0.243-5.466
			c0-1.735,0.081-3.529,0.243-5.381c0.163-1.847,0.515-3.859,1.062-6.036h75.827c0.542,2.177,0.899,4.188,1.062,6.036
			c0.162,1.852,0.246,3.646,0.246,5.381c0,1.744-0.084,3.563-0.246,5.466c-0.162,1.899-0.52,3.939-1.062,6.111h-24.136v61.155
			c-2.828,0.431-5.376,0.76-7.662,0.978c-2.285,0.219-4.353,0.324-6.197,0.324c-1.849,0-3.911-0.105-6.197-0.324
			c-2.285-0.218-4.786-0.547-7.502-0.978V26.323z"/>
		<path fill="#FFFFFF" d="M500.799,3.33c2.392-0.539,4.762-0.919,7.098-1.14c2.336-0.215,4.594-0.325,6.768-0.325
			c2.062,0,4.297,0.109,6.688,0.325c2.387,0.221,4.728,0.601,7.008,1.14v84.148c-2.828,0.431-5.376,0.76-7.667,0.978
			c-2.28,0.219-4.348,0.324-6.191,0.324c-1.855,0-3.912-0.105-6.197-0.324c-2.286-0.218-4.784-0.547-7.506-0.978V3.33z"/>
		<path fill="#FFFFFF" d="M601.416,62.694c1.85,2.929,3.313,6.226,4.403,9.869c1.084,3.638,1.626,7.801,1.626,12.473
			c-4.996,1.956-9.562,3.202-13.691,3.744c-4.136,0.548-8.271,0.816-12.395,0.816c-6.963,0-13.104-1.034-18.43-3.096
			c-5.326-2.067-9.813-5.03-13.457-8.886c-3.644-3.856-6.382-8.483-8.226-13.864c-1.855-5.382-2.777-11.439-2.777-18.185
			c0-6.519,0.922-12.498,2.777-17.936c1.844-5.434,4.56-10.083,8.147-13.942s7.991-6.874,13.211-9.05
			c5.219-2.174,11.193-3.263,17.938-3.263c2.279,0,4.459,0.059,6.521,0.165c2.063,0.109,4.103,0.327,6.12,0.651
			c2.006,0.327,4.073,0.816,6.191,1.469c2.123,0.651,4.487,1.467,7.097,2.445c0.213,3.697-0.111,7.365-0.983,11.009
			c-0.872,3.641-2.224,7.203-4.073,10.682c-1.851-0.657-3.505-1.168-4.974-1.548c-1.47-0.383-2.855-0.682-4.158-0.899
			c-1.308-0.215-2.587-0.353-3.834-0.408c-1.245-0.053-2.581-0.081-3.995-0.081c-5.219,0-9.539,1.548-12.964,4.646
			c-3.421,3.099-5.142,8.455-5.142,16.061c0,4.023,0.524,7.371,1.554,10.031c1.033,2.671,2.392,4.755,4.079,6.275
			c1.682,1.525,3.644,2.609,5.868,3.27c2.229,0.647,4.593,0.972,7.097,0.972c3.151,0,5.896-0.268,8.237-0.815
			C595.521,64.756,598.264,63.89,601.416,62.694z"/>
		<path fill="#FFFFFF" d="M657.84,33.012c-0.111-1.956-0.654-3.59-1.632-4.893c-0.979-1.305-2.229-2.308-3.749-3.017
			c-1.526-0.707-3.214-1.193-5.058-1.467c-1.851-0.268-3.756-0.405-5.706-0.405c-2.609,0-5.655,0.299-9.131,0.895
			c-3.481,0.601-7.069,1.548-10.763,2.853c-0.979-1.844-1.822-3.532-2.531-5.052c-0.705-1.522-1.247-3.073-1.627-4.649
			c-0.386-1.573-0.654-3.205-0.821-4.893c-0.156-1.685-0.24-3.612-0.24-5.789c5.22-1.738,10.411-3.04,15.574-3.912
			c5.164-0.869,9.813-1.307,13.938-1.307c5.655,0,10.769,0.684,15.334,2.042c4.56,1.361,8.449,3.451,11.657,6.276
			c3.207,2.828,5.683,6.44,7.421,10.844c1.738,4.404,2.609,9.648,2.609,15.736v47.78c-4.13,1.195-9.131,2.392-15.004,3.588
			c-5.868,1.195-12.07,1.8-18.587,1.8c-5.655,0-10.847-0.521-15.58-1.554c-4.727-1.028-8.773-2.693-12.143-4.975
			c-3.37-2.285-6.008-5.297-7.914-9.053c-1.899-3.744-2.854-8.337-2.854-13.78c0-5.32,1.146-9.724,3.431-13.205
			c2.28-3.479,5.22-6.25,8.808-8.318c3.587-2.065,7.555-3.506,11.902-4.32c4.348-0.816,8.584-1.224,12.719-1.224H657.84z
			 M657.84,50.299h-9.299c-3.8,0-7.008,0.815-9.617,2.447s-3.917,3.912-3.917,6.852c0,2.168,0.491,3.878,1.47,5.13
			c0.978,1.252,2.201,2.202,3.671,2.855c1.465,0.654,3.04,1.09,4.728,1.303c1.688,0.223,3.229,0.329,4.649,0.329
			c0.973,0,2.392-0.106,4.236-0.329c1.85-0.213,3.208-0.431,4.079-0.648V50.299z"/>
		<path fill="#FFFFFF" d="M703.06,69.847c1.319,0,2.672,0.066,4.058,0.201c1.38,0.134,2.827,0.291,4.348,0.491
			c0.269,1.521,0.464,2.968,0.592,4.348c0.135,1.387,0.202,2.738,0.202,4.058c0,1.318-0.067,2.671-0.202,4.057
			c-0.128,1.386-0.323,2.839-0.592,4.359c-1.521,0.257-2.968,0.458-4.348,0.592c-1.386,0.129-2.738,0.196-4.058,0.196
			c-1.318,0-2.665-0.067-4.057-0.196c-1.38-0.134-2.834-0.335-4.348-0.592c-0.263-1.521-0.458-2.974-0.592-4.359
			c-0.135-1.386-0.202-2.738-0.202-4.057c0-1.319,0.067-2.671,0.202-4.058c0.134-1.38,0.329-2.827,0.592-4.348
			c1.514-0.2,2.968-0.357,4.348-0.491C700.395,69.914,701.741,69.847,703.06,69.847z"/>
		<path fill="#FFFFFF" d="M742.781,35.426c2.9,0,5.801,0.251,8.706,0.746c2.896,0.492,5.516,1.528,7.857,3.115
			c2.347,1.584,4.252,3.856,5.739,6.82c1.48,2.973,2.229,6.896,2.229,11.774V87.45c-1.721,0.336-3.264,0.548-4.649,0.643
			c-1.386,0.101-2.604,0.151-3.666,0.151c-1.117,0-2.369-0.051-3.755-0.151c-1.386-0.095-2.934-0.307-4.649-0.643V59.666
			c0-3.499-0.659-6.002-1.979-7.521c-1.319-1.521-3.33-2.275-6.035-2.275c-0.727,0-1.497,0.067-2.325,0.196
			c-0.815,0.134-1.33,0.269-1.53,0.396V87.45c-1.716,0.336-3.264,0.548-4.649,0.643c-1.387,0.101-2.604,0.151-3.655,0.151
			c-1.129,0-2.375-0.051-3.761-0.151c-1.38-0.095-2.934-0.307-4.649-0.643V38.891c2.308-0.796,5.107-1.568,8.41-2.328
			C733.712,35.806,737.836,35.426,742.781,35.426z"/>
		<path fill="#FFFFFF" d="M790.427,67.277c0.721,2.704,1.989,4.615,3.806,5.733c1.811,1.128,4.196,1.688,7.169,1.688
			c1.912,0,4.058-0.234,6.427-0.693c2.375-0.464,4.717-1.151,7.024-2.079c0.922,1.722,1.727,3.756,2.42,6.131
			c0.692,2.375,1.078,4.845,1.141,7.416c-5.868,2.18-11.87,3.269-18,3.269c-4.75,0-8.818-0.659-12.216-1.983
			c-3.393-1.313-6.164-3.141-8.311-5.488c-2.14-2.336-3.727-5.13-4.749-8.354c-1.018-3.23-1.531-6.757-1.531-10.579
			c0-3.767,0.53-7.287,1.587-10.584c1.056-3.303,2.638-6.17,4.75-8.609c2.112-2.437,4.738-4.37,7.907-5.784
			c3.163-1.417,6.856-2.129,11.076-2.129c3.498,0,6.61,0.592,9.349,1.777c2.738,1.19,5.063,2.822,6.974,4.901
			c1.912,2.079,3.376,4.579,4.404,7.519c1.017,2.935,1.531,6.113,1.531,9.545c0,1.777-0.084,3.375-0.246,4.795
			c-0.168,1.414-0.313,2.593-0.447,3.51H790.427z M798.328,47.79c-2.101,0-3.917,0.66-5.432,1.984
			c-1.521,1.319-2.408,3.358-2.671,6.125h15.826c-0.135-2.303-0.839-4.23-2.124-5.778C802.643,48.567,800.776,47.79,798.328,47.79z"
			/>
		<path fill="#FFFFFF" d="M839.413,50.366h-14.641c-0.325-1.318-0.543-2.559-0.638-3.71c-0.101-1.151-0.15-2.257-0.15-3.313
			c0-1.054,0.05-2.144,0.15-3.267c0.095-1.124,0.313-2.336,0.638-3.658h45.996c0.33,1.322,0.542,2.534,0.643,3.658
			c0.096,1.123,0.146,2.213,0.146,3.267c0,1.056-0.05,2.162-0.146,3.313c-0.101,1.151-0.313,2.392-0.643,3.71h-14.636V87.45
			c-1.721,0.269-3.269,0.464-4.654,0.599c-1.386,0.128-2.639,0.195-3.762,0.195c-1.117,0-2.369-0.067-3.755-0.195
			c-1.386-0.135-2.906-0.33-4.549-0.599V50.366z"/>
	</g>
</g>
</svg>
