<?xml version="1.0" encoding="utf-8"?>
<!-- Generator: Adobe Illustrator 16.0.3, SVG Export Plug-In . SVG Version: 6.00 Build 0)  -->
<!DOCTYPE svg PUBLIC "-//W3C//DTD SVG 1.1//EN" "http://www.w3.org/Graphics/SVG/1.1/DTD/svg11.dtd">
<svg version="1.1" id="Logotype" xmlns="http://www.w3.org/2000/svg" xmlns:xlink="http://www.w3.org/1999/xlink" x="0px" y="0px"
	 width="360.961px" height="91.046px" viewBox="0 0 360.961 91.046" enable-background="new 0 0 360.961 91.046"
	 xml:space="preserve">
<g id="LOGO__x2B__Majchrzak">
	<g>
		<path fill="#FFFFFF" d="M182.418,52.477l-3.146,9.784c-0.961,3.275-1.965,7.162-2.795,10.57h-0.131
			c-0.655-3.451-1.573-7.121-2.49-10.526l-2.883-9.828h-8.867l-1.878,29.44h6.159l0.524-11.184
			c0.218-3.669,0.349-8.212,0.524-12.188h0.087c0.699,3.845,1.704,8.037,2.665,11.488l3.145,11.4h5.198l3.583-11.488
			c1.137-3.449,2.358-7.644,3.275-11.4h0.131c0,4.281,0.132,8.563,0.264,12.101l0.437,11.271h6.509l-1.616-29.44H182.418z
			 M215.577,69.292c0-5.022-2.271-9.217-9.393-9.217c-3.887,0-6.813,1.049-8.299,1.879l1.223,4.28
			c1.398-0.873,3.713-1.616,5.896-1.616c3.275,0,3.889,1.616,3.889,2.752v0.307c-7.559-0.045-12.537,2.621-12.537,8.169
			c0,3.407,2.577,6.552,6.902,6.552c2.533,0,4.717-0.917,6.115-2.621h0.131l0.393,2.141h5.984c-0.219-1.18-0.307-3.145-0.307-5.197
			v-7.428H215.577z M209.111,74.142c0,0.395-0.043,0.786-0.131,1.136c-0.437,1.354-1.791,2.446-3.451,2.446
			c-1.483,0-2.62-0.83-2.62-2.533c0-2.576,2.709-3.406,6.202-3.363V74.142z M225.015,51.253c-2.185,0-3.538,1.44-3.538,3.363
			c0,1.834,1.354,3.319,3.45,3.319c2.228,0,3.581-1.485,3.581-3.319C228.465,52.694,227.154,51.253,225.015,51.253z M221.651,77.505
			c0,4.236-0.35,5.939-1.311,6.945c-0.83,0.873-2.186,1.268-3.932,1.397l0.654,5.196c3.188,0,6.29-0.785,8.256-2.619
			c1.967-1.836,3.014-4.674,3.014-9.348V60.557h-6.683L221.651,77.505L221.651,77.505z M244.847,65.188
			c1.747,0,2.927,0.306,3.713,0.655l1.048-4.938c-1.396-0.523-3.318-0.83-5.066-0.83c-7.949,0-12.23,5.111-12.23,11.357
			c0,6.727,4.412,10.92,11.313,10.92c2.535,0,4.763-0.438,5.94-0.961l-0.786-4.893c-1.004,0.394-2.229,0.655-3.8,0.655
			c-3.231,0-5.854-2.054-5.854-5.983C239.081,67.677,241.352,65.188,244.847,65.188z M266.034,60.076
			c-1.224,0-2.49,0.307-3.451,0.83c-1.049,0.568-1.922,1.268-2.621,2.186h-0.086V50.903h-6.641v31.015h6.641V69.25
			c0-0.48,0.043-1.049,0.217-1.484c0.48-1.18,1.574-2.314,3.32-2.314c2.489,0,3.45,1.922,3.45,4.717v11.75h6.64V69.423
			C273.502,63.003,270.271,60.076,266.034,60.076z M284.776,64.488h-0.175l-0.22-3.932h-5.721c0.086,1.835,0.174,3.888,0.174,7.033
			v14.326h6.64V71.083c0-0.523,0.044-1.047,0.131-1.484c0.438-2.053,2.097-3.363,4.543-3.363c0.743,0,1.312,0.088,1.791,0.176
			v-6.246c-0.479-0.088-0.786-0.088-1.397-0.088C288.489,60.076,285.868,61.387,284.776,64.488z M302.336,76.544
			c1.224-1.18,2.315-2.533,3.494-3.932l6.422-8.08v-3.977H294.78v5.242h9.393v0.086c-1.225,1.312-2.186,2.359-3.407,3.802
			l-6.728,8.431v3.801h18.563v-5.285h-10.265V76.544L302.336,76.544z M334.052,69.292c0-5.022-2.271-9.217-9.392-9.217
			c-3.889,0-6.814,1.049-8.301,1.879l1.225,4.28c1.396-0.873,3.713-1.616,5.896-1.616c3.276,0,3.888,1.616,3.888,2.752v0.307
			c-7.557-0.045-12.535,2.621-12.535,8.169c0,3.407,2.576,6.552,6.9,6.552c2.533,0,4.719-0.917,6.115-2.621h0.131l0.395,2.141h5.983
			c-0.219-1.18-0.306-3.145-0.306-5.197L334.052,69.292L334.052,69.292z M327.586,74.142c0,0.395-0.043,0.786-0.131,1.136
			c-0.438,1.354-1.791,2.446-3.451,2.446c-1.484,0-2.621-0.83-2.621-2.533c0-2.576,2.71-3.406,6.203-3.363V74.142z M352.226,69.207
			l7.646-8.649h-7.994l-4.324,6.422c-0.524,0.83-1.049,1.703-1.529,2.577h-0.087V50.903h-6.64v31.015h6.64v-6.685l1.704-2.097
			l5.154,8.779h8.168L352.226,69.207z M104.531,22.386c-2.23-1.193-4.805-1.346-6.104-1.217c-1.299,0.129-1.662-0.115-1.709,1.217
			c-0.047,1.332-0.485,4.26,0.244,5.11s1.567,0.707,1.465,1.216c-0.081,0.403-1.099,1.383-1.523,1.777
			c-1.165-2.906-3.094-7.54-4.336-11.51c-1.465-4.681-4.229-10.213-7.813-14.356c-3.585-4.143-7.796-3.809-13.43-4.136
			C65.691,0.16,53.413,0,53.413,0S41.312,0.159,35.677,0.487c-5.635,0.328-9.845-0.007-13.429,4.136s-6.348,9.675-7.813,14.356
			c-1.243,3.97-3.171,8.604-4.337,11.51c-0.424-0.394-1.442-1.374-1.523-1.777c-0.103-0.51,0.735-0.367,1.465-1.216
			c0.729-0.85,0.291-3.778,0.244-5.11c-0.047-1.332-0.411-1.088-1.709-1.217c-1.299-0.129-3.874,0.024-6.104,1.217
			c-2.231,1.193-2.59,1.998-2.442,3.163c0.148,1.165,1.611,1.99,2.442,2.677c0.83,0.687,2.441,0.243,2.441,0.243l3.276,5.83
			c-1.819,2.743-4.668,6.248-5.229,8.04c-0.751,2.396-0.475,12.514-0.244,17.276c0.03,0.633,0.072,1.274,0.125,1.918
			c-0.062,1.09-0.111,2.271-0.125,3.436c-0.046,3.9,0.392,9.836,0.488,13.14C3.3,81.412,4.441,82,5.645,82h6.836
			c2.31,0,2.73-1.437,2.93-1.945c0.163-0.414,0.222-4.156,0.239-5.559c1.315,0.135,2.776,0.277,4.4,0.447
			c8.988,0.939,33.362,0.885,33.362,0.885s24.55,0.055,33.538-0.885c1.625-0.17,3.084-0.313,4.4-0.447
			c0.017,1.401,0.076,5.145,0.239,5.559c0.2,0.51,0.62,1.945,2.93,1.945h6.837c1.204,0,2.345-0.588,2.441-3.894
			c0.097-3.304,0.534-9.237,0.488-13.14c-0.014-1.163-0.063-2.346-0.125-3.436c0.052-0.644,0.094-1.285,0.125-1.918
			c0.23-4.762,0.507-14.879-0.244-17.276c-0.561-1.792-3.411-5.296-5.229-8.04l3.276-5.83c0,0,1.611,0.443,2.441-0.243
			c0.83-0.686,2.294-1.511,2.442-2.677C107.12,24.383,106.762,23.579,104.531,22.386z M19.853,14.843
			c1.639-3.634,4.01-7.709,4.639-8.273c0.629-0.564,4.447-1.216,14.894-1.46c10.447-0.244,14.027-0.349,14.027-0.349
			s3.756,0.105,14.203,0.349C78.063,5.354,81.88,6.006,82.51,6.57c0.63,0.564,3,4.639,4.639,8.273
			c1.639,3.633,3.482,8.26,2.93,9.246c-0.553,0.986-0.393,0.848-5.86,1.217c-5.467,0.369-30.806,0.088-30.806,0.088
			s-25.163,0.281-30.63-0.088c-5.468-0.369-5.308-0.23-5.86-1.217C16.371,23.103,18.214,18.476,19.853,14.843z M11.993,32.119
			c0.397-0.723,2.93-1.947,2.93-1.947s1.078,1.61,4.151,4.867c3.072,3.256,3.876,3.518,6.592,5.84
			c0.183,0.156,0.358,0.319,0.527,0.487l17.297,0.243l3.907,1.216l6.016-0.149l6.192,0.149l3.907-1.216l17.297-0.243
			c0.169-0.168,0.344-0.331,0.527-0.487c2.716-2.322,3.52-2.583,6.592-5.84c3.072-3.257,4.151-4.867,4.151-4.867
			s2.533,1.224,2.93,1.947c0.396,0.723,3.331,6.741,3.174,8.273c-0.157,1.532,0.167,3.151-0.488,3.894
			c-0.656,0.742-4.218,3.59-6.348,4.379c-2.13,0.789-2.943,1.266-4.151,1.217s-1.599-1.568-5.372-2.189
			c-2.938-0.482-3.962-0.656-4.272-0.709c-2.243,0.037-6.702,0.12-8.668,0.223c-2.683,0.141-8.058,0.486-8.058,0.486
			s-1.164-0.922-1.953-1.217c-0.789-0.294-5.459-0.271-5.459-0.271s-4.495-0.021-5.284,0.271c-0.789,0.295-1.953,1.217-1.953,1.217
			s-5.375-0.347-8.058-0.486c-1.966-0.103-6.425-0.186-8.668-0.223c-0.311,0.053-1.335,0.227-4.272,0.709
			c-3.772,0.621-4.164,2.143-5.372,2.189c-1.208,0.049-2.021-0.428-4.151-1.217c-2.13-0.789-5.692-3.638-6.348-4.379
			c-0.656-0.742-0.332-2.361-0.488-3.894C8.662,38.859,11.596,32.842,11.993,32.119z M24.69,68.86
			c-0.532,0.729-2.43,0.341-2.686,0.243c-0.256-0.096-9.828-2.256-10.743-2.676c-0.915-0.422-1.789-1.033-2.686-2.434
			s-0.977-4.381-0.977-4.381s-0.143-3.885,0.489-4.623c0.631-0.738,1.3-0.759,3.174-0.242c1.875,0.515,5.979,1.666,8.79,4.379
			c2.811,2.715,4.313,6.182,4.883,7.301C25.505,67.546,25.221,68.13,24.69,68.86z M80.115,61.561
			c-1.537,3.278-3.683,6.071-4.883,7.3c-1.2,1.229-1.488,1.662-5.616,1.946c-4.128,0.284-16.203,0.437-16.203,0.437
			s-11.899-0.15-16.027-0.437c-4.128-0.284-4.415-0.72-5.616-1.946s-3.347-4.021-4.883-7.3c-1.536-3.278-1.763-3.8-1.465-4.38
			c0.297-0.579,0.881-1.672,2.197-1.703c1.316-0.032,25.793,0.247,25.793,0.247s24.653-0.279,25.969-0.247
			c1.315,0.031,1.9,1.124,2.197,1.703C81.877,57.761,81.651,58.283,80.115,61.561z M98.915,54.992
			c0.631,0.737,0.488,4.623,0.488,4.623s-0.079,2.979-0.977,4.379c-0.898,1.401-1.771,2.014-2.686,2.435
			c-0.915,0.42-10.487,2.579-10.743,2.676c-0.257,0.097-2.154,0.485-2.686-0.243c-0.532-0.729-0.815-1.314-0.244-2.433
			c0.571-1.119,2.072-4.587,4.883-7.3c2.811-2.715,6.916-3.865,8.79-4.381C97.615,54.232,98.284,54.253,98.915,54.992z"/>
	</g>
</g>
<g id="OSK">
	<g>
		<path fill="#FFFFFF" d="M179.165,0.965c-10.375,0-18.602,8.227-18.602,21.794c0,12.893,7.919,20.935,18.111,20.935h0.061
			c9.516,0,18.479-7.183,18.479-21.794C197.215,9.13,189.603,0.965,179.165,0.965z M178.858,41.238h-0.062
			c-9.761,0-15.164-9.27-15.164-18.602c0-9.639,4.85-19.216,15.348-19.216c10.375,0,15.165,9.945,15.165,18.663
			C194.146,32.336,188.681,41.238,178.858,41.238z M226.924,20.242c-5.955-2.333-8.596-4.666-8.596-9.209
			c0-3.254,2.271-7.551,8.963-7.551c3.562,0,6.201,1.167,7.307,1.965l1.105-2.517c-1.412-0.921-4.359-1.903-8.229-1.903
			c-7.061,0-12.032,4.42-12.032,10.498c0,5.587,3.99,9.025,10.62,11.419c6.018,2.271,8.411,5.034,8.411,9.639
			c0,5.096-3.806,8.595-10.007,8.595c-3.438,0-6.691-1.105-9.024-2.702l-1.104,2.395c2.147,1.596,6.322,2.763,9.885,2.763
			c8.84,0,13.138-5.341,13.138-11.357C237.36,26.136,233.738,23.005,226.924,20.242z M266.702,19.199L282.418,1.64h-3.562
			l-14.673,16.638c-1.105,1.289-2.333,2.701-3.561,4.297h-0.186V1.64h-2.945v41.379h2.945V25.89l4.236-4.666l15.717,21.794h3.499
			L266.702,19.199z"/>
	</g>
</g>
</svg>
