<?xml version="1.0" encoding="utf-8"?>
<!-- Generator: Adobe Illustrator 16.0.3, SVG Export Plug-In . SVG Version: 6.00 Build 0)  -->
<!DOCTYPE svg PUBLIC "-//W3C//DTD SVG 1.1//EN" "http://www.w3.org/Graphics/SVG/1.1/DTD/svg11.dtd">
<svg version="1.1" id="svg3036" xmlns:svg="http://www.w3.org/2000/svg"
	 xmlns="http://www.w3.org/2000/svg" xmlns:xlink="http://www.w3.org/1999/xlink" x="0px" y="0px" width="167.21px"
	 height="24.09px" viewBox="0 0 167.21 24.09" enable-background="new 0 0 167.21 24.09" xml:space="preserve">
<g id="layer1" transform="translate(-452.68196,-519.46191)">
	<path id="path3020" fill="#FFFFFF" d="M474.113,527.214c-0.755,1.252-1.19,2.721-1.19,4.29c0,4.007,2.832,7.351,6.601,8.145
		l-3.851-3.801l0.829-1.701c-0.597-0.438-0.982-1.139-0.982-1.928c0-0.562,0.118-1.098,0.444-1.508h-0.842v3.967
		c-0.515,0-0.93-0.417-0.93-0.932v-3.011c0-0.515,0.417-0.926,0.934-0.926h8.138l-1.12-2.588L474.113,527.214z M486.206,531.742
		h1.492c0.872,0.124,0.995,0.416,0.872,1.244l-0.913,1.992l-1.036-0.457l0.664-1.494l-0.706-0.001l-0.87,1.952l-1.036-0.457
		l0.621-1.494l-3.482-0.001l-1.493,2.987l3.461,3.423c3.357-1.071,5.79-4.216,5.79-7.931c0-1.41-0.352-2.739-0.97-3.904
		c-0.361-0.504-2.394-0.379-2.394-0.379V531.742z M481.521,539.829l-3.899-3.816l1.459-2.987h0.532l-1.245,2.698l3.988,4.031
		c-0.301,0.039-0.607,0.064-0.917,0.07L481.521,539.829z M484.837,525.9h2.613c-1.524-1.708-3.734-2.719-6.203-2.719
		c-2.436,0-4.627,1.052-6.15,2.719h8.414l0.555-1.096c0.136-0.293,0.486-0.421,0.78-0.285c0.295,0.137,0.423,0.487,0.285,0.781
		l-0.294,0.594V525.9z M471.266,531.504c0-5.511,4.469-9.98,9.981-9.98c5.511,0,9.98,4.469,9.98,9.98
		c0,5.512-4.469,9.981-9.98,9.981C475.735,541.485,471.266,537.017,471.266,531.504z"/>
	<path id="path3022" fill="#FFFFFF" d="M496.011,537.519c-0.107,1.154,0.073,1.885,0,2.973c1.444,0.58,1.986,0.869,4.727,0.988
		c0.615,0.027,2.48-0.012,4.086-0.953c0.856-0.51,2.899-2.092,2.925-5.076c0-1.316-0.461-2.729-1.372-3.588
		c-1.205-1.183-3.525-1.694-4.997-2.313c-1.339-0.538-1.981-1.021-2.41-1.585c-0.188-0.243-0.615-0.887-0.615-1.774
		c0-1.101,0.803-3.09,3.48-3.09c1.794,0,2.395,0.549,2.989,0.894c0.687,0.399,1.129,1.433,1.156,1.486h0.505
		c0-0.906-0.108-1.631-0.144-2.646c-0.94-0.399-1.321-0.54-2.391-0.729c-0.643-0.107-1.366-0.107-1.553-0.107
		c-2.597,0-3.909,0.727-4.765,1.533c-1.473,1.37-1.66,3.009-1.66,3.789c0,1.692,0.83,3.09,2.223,3.949
		c0.615,0.377,1.605,0.834,3.157,1.425c0.964,0.376,1.928,0.645,2.731,1.37c1.016,0.887,1.26,1.938,1.245,2.477
		c-0.035,1.377-0.698,3.705-3.937,3.732c-0.83,0-1.565-0.109-1.86-0.217c-1.312-0.402-2.343-1.201-2.691-1.631
		c-0.24-0.297-0.265-0.572-0.505-0.922L496.011,537.519z"/>
	<path id="path3024" fill="#FFFFFF" d="M548.105,522.159c-0.775,1.531-1.406,2.897-2.209,4.429
		c-0.803,1.559-1.607,3.091-2.409,4.649c-0.643,1.237-1.259,2.499-1.928,3.709c-0.348,0.645-0.723,1.235-1.098,1.854
		c-0.829-1.424-1.687-2.875-2.489-4.326c-0.909-1.639-1.793-3.278-2.703-4.944c-0.59-1.103-1.231-2.204-1.821-3.333
		c-0.375-0.725-0.829-1.286-1.15-2.038c-0.473,0-0.644,0.026-0.991,0c-0.643,5.267-2.29,17.754-2.531,18.91
		c0.775,0,1.755-0.055,1.942,0c0.08-1.451,0.134-2.818,0.268-4.27c0.107-1.531,0.268-3.037,0.455-4.568
		c0.161-1.72,0.349-3.439,0.536-5.16c0.962,1.774,1.954,3.574,2.944,5.347c0.83,1.506,1.714,3.037,2.49,4.569
		c0.722,1.396,1.397,2.656,2.013,4.081h0.744c0.215-0.592,0.428-1.045,0.669-1.609c0.268-0.592,0.535-1.156,0.83-1.747
		c1.767-3.628,3.64-7.255,5.514-10.882c0.375,2.795,0.75,5.588,1.018,8.383c0.188,1.989,0.497,3.867,0.604,5.855
		c0.83,0,2.094,0,3.09,0c-0.135-0.646-0.275-1.359-0.382-2.005c-0.161-0.968-0.26-1.728-0.421-2.695
		c-0.134-1.101-0.321-2.204-0.455-3.305c-0.241-1.774-0.455-3.574-0.696-5.348c-0.134-1.155-0.321-2.31-0.455-3.466
		c-0.08-0.752-0.178-1.34-0.231-2.091H548.105z"/>
	<path id="path3026" fill="#FFFFFF" d="M578.279,522.159c0.055,0.94,0.08,1.934,0.107,2.875c0.053,1.531,0.08,3.063,0.08,4.594
		c0,0.914,0,1.828-0.027,2.715c0,1.558,0,3.117-0.025,4.676c-0.055,1.344-0.141,2.68-0.248,4.051c0.65,0,1.914-0.027,2.047,0
		c-0.133-1.183-0.06-2.359-0.14-3.567c-0.081-1.344-0.107-2.714-0.134-4.084c-0.027-2.124-0.08-4.273-0.135-6.395
		c1.098,1.074,2.196,2.176,3.294,3.251c1.926,1.907,3.881,3.787,5.781,5.723c1.634,1.666,3.212,3.353,4.792,5.072h0.875
		c-0.054-1.236,0.008-2.492-0.019-3.755c-0.027-1.21,0.036-2.852,0.036-4.087c0-2.177-0.054-3.77,0-5.946
		c0.026-1.64,0.013-3.483,0.146-5.123c-0.627,0-1.805,0.026-1.967,0c0.082,0.887,0.017,1.747,0.072,2.605
		c0.052,1.021,0.105,2.042,0.132,3.091c0.081,2.821,0.136,5.669,0.161,8.518c-1.74-1.773-3.479-3.521-5.22-5.266
		c-1.339-1.344-2.678-2.66-3.989-3.978c-1.043-1.047-2.087-2.095-3.078-3.17c-0.509-0.565-1.043-1.236-1.551-1.8H578.279z"/>
	<path id="path3028" fill="#FFFFFF" d="M512.769,537.512c-0.107,1.156,0.073,1.886,0,2.974c1.445,0.58,1.986,0.87,4.727,0.989
		c0.615,0.027,2.481-0.013,4.086-0.952c0.857-0.511,2.9-2.094,2.926-5.076c0-1.316-0.462-2.729-1.373-3.589
		c-1.205-1.183-3.525-1.695-4.998-2.314c-1.338-0.536-1.981-1.02-2.409-1.585c-0.188-0.241-0.616-0.886-0.616-1.772
		c0-1.103,0.804-3.091,3.48-3.091c1.794,0,2.396,0.55,2.989,0.895c0.688,0.399,1.129,1.433,1.156,1.486h0.506
		c0-0.906-0.109-1.631-0.145-2.647c-0.938-0.397-1.321-0.54-2.391-0.728c-0.643-0.107-1.365-0.107-1.553-0.107
		c-2.596,0-3.909,0.726-4.765,1.531c-1.472,1.371-1.66,3.01-1.66,3.789c0,1.694,0.83,3.091,2.222,3.952
		c0.615,0.375,1.606,0.832,3.159,1.424c0.963,0.376,1.926,0.645,2.73,1.369c1.017,0.887,1.26,1.939,1.246,2.476
		c-0.036,1.379-0.698,3.708-3.938,3.735c-0.83,0-1.565-0.11-1.859-0.218c-1.313-0.403-2.344-1.201-2.691-1.632
		c-0.242-0.296-0.265-0.572-0.506-0.921L512.769,537.512z"/>
	<path id="path3030" fill="#FFFFFF" d="M601.396,522.159c0.053,0.94,0.08,1.934,0.105,2.875c0.054,1.531,0.082,3.063,0.082,4.594
		c0,0.914,0,1.828-0.028,2.715c0,1.558,0,3.117-0.026,4.676c-0.053,1.344-0.14,2.68-0.247,4.051c0.614,0,1.913-0.027,2.048,0
		c-0.135-1.183-0.061-2.359-0.141-3.567c-0.081-1.344-0.107-2.714-0.135-4.084c-0.026-2.124-0.08-4.273-0.133-6.395
		c1.097,1.074,2.193,2.176,3.291,3.251c1.928,1.907,3.883,3.787,5.783,5.723c1.633,1.666,3.213,3.353,4.793,5.072h0.875
		c-0.055-1.236,0.007-2.492-0.02-3.755c-0.027-1.21,0.036-2.852,0.036-4.087c0-2.177-0.054-3.77,0-5.946
		c0.026-1.64,0.013-3.483,0.146-5.123c-0.626,0-1.806,0.026-1.966,0c0.081,0.887,0.018,1.747,0.069,2.605
		c0.054,1.021,0.108,2.042,0.134,3.091c0.082,2.821,0.134,5.669,0.162,8.518c-1.74-1.773-3.48-3.521-5.221-5.266
		c-1.339-1.344-2.678-2.66-3.988-3.978c-1.044-1.047-2.09-2.095-3.079-3.17c-0.509-0.565-1.042-1.236-1.552-1.8H601.396z"/>
	<path id="path3032" fill="#FFFFFF" d="M469.037,541.069c-1.259-1.425-2.7-3.111-3.879-4.589c-1.284-1.559-2.489-3.171-3.72-4.782
		c1.525-0.323,2.917-0.591,4.041-1.694c1.285-1.263,1.473-2.714,1.5-3.359c0-0.886-0.321-1.8-0.83-2.526
		c-1.124-1.611-2.971-1.746-3.613-1.798c-0.321-0.028-0.67-0.055-0.992-0.055h-5.166l-1.634-0.134v18.938h2.946
		c-0.054-0.672-0.107-1.283-0.135-1.982c-0.026-0.779-0.026-1.559-0.026-2.363c0-1.587,0-3.199-0.026-4.784l0.615-0.107
		c1.339,1.666,2.678,3.333,3.963,5.024c1.043,1.398,2.157,2.762,3.147,4.213H469.037z M457.583,523.448
		c0.668-0.054,1.311-0.107,1.981-0.107c0.642,0,1.365,0.054,1.954,0.215c0.884,0.243,2.57,0.967,2.57,3.413
		c0,2.499-1.82,3.386-2.624,3.681c-1.473,0.511-3.694,0.376-3.961,0.376c-0.027-1.155,0.014-2.31,0.014-3.438
		C457.517,526.189,457.53,524.819,457.583,523.448z"/>
	<path id="path3034" fill="#FFFFFF" d="M563.914,522.159c-0.428,1.102-0.869,2.089-1.351,3.164
		c-0.643,1.479-1.271,3.019-1.915,4.496c-0.883,2.015-1.645,3.713-2.527,5.729c-0.83,1.773-1.623,3.773-2.48,5.521
		c0.537-0.055,1.469,0,2.131,0c0.818-2.657,1.107-3.285,2.688-7.234c1.313-0.056,2.547-0.014,3.859-0.014
		c1.098,0,2.061-0.015,3.156,0.014c1.807,4.096,2.297,4.789,3.074,7.234c0.973,0,2.345,0,3.275,0
		c-0.455-0.859-0.72-1.599-1.148-2.513c-0.508-1.101-1.076-2.345-1.559-3.474c-0.615-1.424-1.259-2.821-1.9-4.272
		c-0.563-1.262-1.117-2.411-1.705-3.675c-0.428-0.914-0.827-1.832-1.229-2.719c-0.321-0.725-0.791-1.506-1.059-2.258H563.914z
		 M561.046,532.395c0.509-1.236,0.916-2.309,1.451-3.545c0.456-1.075,0.785-1.861,1.294-2.91l2.946,6.455H561.046z"/>
</g>
</svg>
