<?xml version="1.0" encoding="utf-8"?>
<!-- Generator: Adobe Illustrator 16.0.3, SVG Export Plug-In . SVG Version: 6.00 Build 0)  -->
<!DOCTYPE svg PUBLIC "-//W3C//DTD SVG 1.1//EN" "http://www.w3.org/Graphics/SVG/1.1/DTD/svg11.dtd">
<svg version="1.1" id="Layer_1" xmlns="http://www.w3.org/2000/svg" xmlns:xlink="http://www.w3.org/1999/xlink" x="0px" y="0px"
	 width="177px" height="27px" viewBox="0 0 177 27" enable-background="new 0 0 177 27" xml:space="preserve">
<path fill="#FFFFFF" d="M81.029,22.467c0,2.405-0.74,3.145-2.96,3.145c-1.11,0-2.405,0-3.33-0.185V0.082h6.105l10.915,16.279
	c0,0-0.185-0.739-0.185-2.034V0.082h6.289v25.345c-0.924,0.185-2.59,0.185-4.069,0.185c-2.403,0-3.146-0.555-4.255-2.219
	c-0.925-1.666-8.51-13.136-8.51-13.136s0,0.555,0,2.405V22.467L81.029,22.467z"/>
<path fill="#FFFFFF" d="M7.955,0.082C2.035,0.452,0,3.967,0,7.667c0,3.885,2.405,7.585,8.325,7.771c2.035,0,4.44,0,5.365,0
	c1.295,0,2.405,0.926,2.405,2.404c0,1.48-1.11,2.405-2.405,2.405c-0.925,0-9.435,0-9.435,0c-3.145,0-4.07,0.925-4.07,3.885v1.479
	c2.959,0.186,8.14,0.186,14.245,0.186c6.105-0.186,8.51-4.07,8.51-8.14c0-4.07-2.59-7.955-8.51-7.955c-1.85-0.185-4.81,0-5.735,0
	C7.585,9.517,6.66,8.777,6.66,7.297c0-1.295,0.925-2.035,2.035-2.22c0.925,0,8.51,0,8.51,0c3.145,0,4.07-0.74,4.07-3.7V0.082
	C19.425,0.082,12.58-0.103,7.955,0.082L7.955,0.082z"/>
<path fill="#FFFFFF" d="M109.334,0.082c-5.92,0.37-7.955,3.885-7.955,7.585c0,3.885,2.405,7.585,8.325,7.771
	c2.034,0,4.438,0,5.364,0c1.295,0,2.404,0.926,2.404,2.404c0,1.48-1.109,2.405-2.404,2.405c-0.926,0-9.436,0-9.436,0
	c-3.145,0-4.068,0.925-4.068,3.885v1.479c2.959,0.186,8.14,0.186,14.244,0.186c6.104-0.186,8.51-4.07,8.51-8.14
	c0-4.07-2.59-7.955-8.51-7.955c-1.851-0.185-4.811,0-5.734,0c-1.11-0.185-2.035-0.925-2.035-2.405c0-1.295,0.925-2.035,2.035-2.22
	c0.925,0,8.51,0,8.51,0c3.145,0,4.07-0.74,4.07-3.7V0.082C120.805,0.082,113.959-0.103,109.334,0.082L109.334,0.082z"/>
<path fill="#FFFFFF" d="M74,25.427c-0.925,0.185-2.59,0.185-4.07,0.185c-2.035,0-3.515-0.185-4.07-2.219l-0.925-2.774H55.5
	l-0.925,2.774c-0.555,2.034-2.035,2.219-4.07,2.219c-2.035,0.187-3.7,0.187-5.735,0c-2.035,0-2.96-0.368-3.885-1.479l-8.325-9.435
	c-0.185-0.37-0.185-0.556-0.185-0.556v8.324c0,2.405-0.74,3.145-2.96,3.145c-1.294,0-3.145,0-4.069-0.185V0.082h7.03v11.655
	c0-0.37,0-0.555,0.185-0.74l8.51-10.915h8.14L38.665,12.477l8.695,9.435c0.185,0.186,0.37,0.555,0.37,0.555s0-0.369,0-0.555
	c0.186-0.186,8.695-21.83,8.695-21.83h7.4L74,25.427L74,25.427z M63.27,15.622l-3.145-9.99l-3.145,9.99c0,0,0.185-0.185,0.37-0.185
	h5.735C63.27,15.438,63.27,15.622,63.27,15.622L63.27,15.622z"/>
<path fill="#FFFFFF" d="M175.748,25.427c-0.74,0.185-2.59,0.185-4.068,0.185c-2.035,0-3.517-0.185-4.07-2.219l-0.926-2.774h-9.436
	l-0.926,2.774c-0.555,2.034-1.85,2.219-4.068,2.219c-2.035,0.187-3.699,0.187-5.551,0c-2.221,0-3.145-0.368-4.069-1.479
	l-8.141-9.435c-0.369-0.37-0.369-0.556-0.369-0.556v8.324c0,2.405-0.74,3.145-2.96,3.145c-1.109,0-3.146,0-3.885-0.185V0.082h6.845
	v11.655c0-0.37,0.185-0.555,0.369-0.74l8.325-10.915h8.14l-10.545,12.395c0,0,8.694,9.435,8.881,9.435
	c0.185,0.186,0.185,0.555,0.185,0.555s0-0.369,0-0.555c0.186-0.186,8.881-21.83,8.881-21.83h7.215L175.748,25.427L175.748,25.427z
	 M165.02,15.622l-3.146-9.99l-3.145,9.99c0,0,0.185-0.185,0.369-0.185h5.734C165.02,15.438,165.02,15.622,165.02,15.622
	L165.02,15.622z"/>
</svg>
