<?xml version="1.0" encoding="utf-8"?>
<!-- Generator: Adobe Illustrator 16.0.3, SVG Export Plug-In . SVG Version: 6.00 Build 0)  -->
<!DOCTYPE svg PUBLIC "-//W3C//DTD SVG 1.1//EN" "http://www.w3.org/Graphics/SVG/1.1/DTD/svg11.dtd">
<svg version="1.1" id="Layer_1" xmlns="http://www.w3.org/2000/svg" xmlns:xlink="http://www.w3.org/1999/xlink" x="0px" y="0px"
	 width="386.822px" height="144.518px" viewBox="0 0 386.822 144.518" enable-background="new 0 0 386.822 144.518"
	 xml:space="preserve">
<g id="logopath">
	<path fill="#FFFFFF" d="M2.706,63.373c-0.974,0-1.826-0.711-1.976-1.702C0.508,60.187-4.458,25.118,19.493,6.785
		c18.785-14.38,45.065-1.843,50.144,0.816c23.692,12.408,27.333,14.316,56.397,3.89c24.947-8.95,43.162-0.205,47.369,6.468
		c1.593,2.524,1.485,5.08-0.286,6.835c-3.03,3.002-6.995,3.254-11.193,3.521c-4.254,0.27-9.077,0.576-14.153,3.754
		c-5.124,3.208-7.009,7.657-6.222,10.396c0.727,2.531,3.545,2.909,5.161,2.909c9.563,0,155.184,4.623,166.569,4.985
		c0.953-0.5,3.563-2.067,4.561-4.695c1.978-5.209,4.124-7.089,12.311-5.241c4.978,1.123,20.727,4.217,32.227,6.476
		c5.68,1.115,10.466,2.055,12.732,2.517c10.095,2.057,11.602,8.376,11.602,11.96c0,1.104-0.896,2-2,2c-1.104,0-2-0.896-2-2
		c0-4.259-2.747-6.889-8.399-8.04c-2.262-0.461-7.038-1.397-12.705-2.512c-11.522-2.263-27.304-5.362-32.336-6.497
		c-6.112-1.378-6.389-0.668-7.688,2.759c-1.84,4.843-6.871,7.038-7.085,7.129l-0.406,0.175l-0.442-0.015
		c-1.57-0.05-157.259-4.999-166.937-4.999c-4.595,0-7.961-2.17-9.005-5.805c-1.421-4.949,1.845-11.072,7.943-14.891
		c5.937-3.717,11.529-4.071,16.023-4.356c3.724-0.236,6.666-0.423,8.63-2.37c0.364-0.361,0.271-0.986-0.281-1.86
		c-3.047-4.83-19.643-13.084-42.636-4.837c-29.868,10.717-34.828,8.866-59.603-4.11c-4.7-2.461-28.998-14.086-45.856-1.184
		C-0.171,26.874,4.635,60.735,4.687,61.075c0.164,1.093-0.588,2.111-1.681,2.275C2.905,63.366,2.805,63.373,2.706,63.373z"/>
</g>
<g id="logotitle">
	<g>
		<g>
			<path fill="#FFFFFF" d="M19.051,89.481c-1.309-1.128-3.252-2.004-5.832-2.629c-2.58-0.623-4.266-1.205-5.058-1.745
				s-1.188-1.319-1.188-2.341c0-1.021,0.396-1.781,1.188-2.285s1.806-0.756,3.042-0.756c1.234,0,2.488,0.216,3.762,0.646
				c1.271,0.434,2.28,0.984,3.023,1.656l2.269-3.204c-1.152-0.959-2.521-1.703-4.104-2.232c-1.584-0.526-3.181-0.791-4.787-0.791
				c-2.497,0-4.592,0.63-6.282,1.891c-1.692,1.26-2.538,3.054-2.538,5.382s0.743,4.057,2.23,5.184
				c0.744,0.602,1.598,1.086,2.558,1.459c0.959,0.371,2.362,0.779,4.212,1.224c1.848,0.444,3.148,0.937,3.906,1.477
				c0.756,0.54,1.134,1.296,1.134,2.269s-0.402,1.753-1.206,2.341c-0.805,0.588-1.891,0.882-3.258,0.882
				c-2.736,0-5.377-1.104-7.92-3.313l-2.664,3.205c3.047,2.712,6.539,4.067,10.476,4.067c2.688,0,4.86-0.685,6.517-2.052
				c1.655-1.368,2.483-3.15,2.483-5.347S20.359,90.609,19.051,89.481z M43.405,76.413H23.893v3.889h7.632v21.275h4.248V80.302h7.632
				V76.413z M53.628,76.413L42.54,101.577h4.536l2.521-5.725h12.6l2.521,5.725h4.536L58.165,76.413H53.628z M51.325,91.929
				l4.571-10.367l4.571,10.367H51.325z M91.608,95.205L76.993,76.413h-4.248v25.164h4.248V83.218l14.256,18.359h4.606V76.413h-4.248
				V95.205z M111.48,76.413h-8.64v25.164h8.352c4.849,0,8.448-1.14,10.802-3.42c2.352-2.279,3.526-5.376,3.526-9.288
				c0-3.911-1.212-6.966-3.636-9.162C119.459,77.51,115.992,76.413,111.48,76.413z M118.806,95.403
				c-1.62,1.452-3.954,2.178-7.002,2.178h-4.716V80.337h4.248c6.6,0,9.899,2.881,9.899,8.642
				C121.237,91.81,120.426,93.951,118.806,95.403z M138.588,76.413L127.5,101.577h4.536l2.52-5.725h12.6l2.521,5.725h4.536
				l-11.088-25.164H138.588z M136.285,91.929l4.57-10.367l4.572,10.367H136.285z M177.792,84.585c0-2.854-0.828-4.932-2.483-6.228
				c-1.656-1.296-4.404-1.944-8.244-1.944h-9.359v25.164h4.248v-8.46h5.58l6.012,8.46h5.399l-6.588-9.145
				C175.979,91.353,177.792,88.737,177.792,84.585z M167.244,89.265h-5.292v-9h5.399c2.279,0,3.863,0.307,4.752,0.918
				s1.332,1.74,1.332,3.385s-0.433,2.838-1.296,3.582C171.276,88.894,169.643,89.265,167.244,89.265z M192.551,76.413h-8.639v25.164
				h8.352c4.847,0,8.446-1.14,10.799-3.42c2.353-2.279,3.528-5.376,3.528-9.288c0-3.911-1.213-6.966-3.637-9.162
				C200.53,77.51,197.063,76.413,192.551,76.413z M199.877,95.403c-1.62,1.452-3.955,2.178-7.002,2.178h-4.715V80.337h4.247
				c6.599,0,9.898,2.881,9.898,8.642C202.307,91.81,201.497,93.951,199.877,95.403z M227.146,91.39h11.27v-4.789h-11.27v-5.185
				h12.528v-5.004H221.53v25.164h18.54v-4.968h-12.925L227.146,91.39L227.146,91.39z M265.99,76.413h-6.768l-4.788,7.452
				l-4.788-7.452h-6.73l7.884,12.275l-8.46,12.889h6.768l5.328-8.279l5.364,8.279h6.84l-8.496-13.032L265.99,76.413z
				 M287.429,78.663c-1.766-1.5-4.579-2.25-8.443-2.25h-8.892v25.164h5.615v-7.02h3.349c3.72,0,6.486-0.722,8.299-2.16
				c1.812-1.44,2.718-3.714,2.718-6.822C290.074,82.468,289.193,80.163,287.429,78.663z M283.306,88.563
				c-0.673,0.756-1.944,1.134-3.816,1.134h-3.779v-8.46h3.204c1.848,0,3.21,0.306,4.086,0.918c0.876,0.611,1.313,1.645,1.313,3.096
				C284.314,86.704,283.977,87.808,283.306,88.563z M314.878,84.765c0-2.929-0.834-5.052-2.502-6.371
				c-1.67-1.32-4.459-1.98-8.371-1.98h-9.539v25.164h5.615V93.55h3.889l5.58,8.027h6.912l-6.373-9
				C313.281,91.401,314.878,88.798,314.878,84.765z M308.111,87.753c-0.696,0.625-2.006,0.937-3.926,0.937h-4.104v-7.451h4.213
				c1.799,0,3.059,0.252,3.778,0.756c0.721,0.504,1.08,1.436,1.08,2.79C309.154,86.14,308.806,87.13,308.111,87.753z M326.253,91.39
				h11.268v-4.789h-11.268v-5.185h12.526v-5.004h-18.143v25.164h18.539v-4.968h-12.924L326.253,91.39L326.253,91.39z M354.82,86.476
				c-2.389-0.588-3.911-1.1-4.571-1.53c-0.66-0.433-0.99-1.014-0.99-1.746c0-0.731,0.27-1.319,0.811-1.765
				c0.539-0.443,1.277-0.666,2.214-0.666c2.327,0,4.584,0.828,6.768,2.483l2.846-4.104c-1.25-1.058-2.713-1.872-4.393-2.448
				s-3.361-0.864-5.041-0.864c-2.568,0-4.709,0.648-6.426,1.944c-1.715,1.296-2.574,3.138-2.574,5.526
				c0,2.388,0.678,4.14,2.035,5.256c1.354,1.115,3.498,2.021,6.426,2.718c1.848,0.456,3.084,0.906,3.707,1.351
				c0.625,0.443,0.938,1.043,0.938,1.8c0,0.756-0.295,1.355-0.883,1.801c-0.588,0.444-1.397,0.666-2.43,0.666
				c-2.305,0-4.813-1.188-7.523-3.564l-3.35,4.104c3.191,2.953,6.781,4.429,10.766,4.429c2.759,0,4.984-0.702,6.679-2.106
				c1.69-1.403,2.536-3.232,2.536-5.489c0-2.255-0.659-3.972-1.979-5.147C359.06,87.945,357.207,87.063,354.82,86.476z
				 M383.349,89.121c-1.32-1.176-3.174-2.058-5.563-2.646c-2.39-0.588-3.912-1.1-4.572-1.53c-0.66-0.433-0.99-1.014-0.99-1.746
				c0-0.731,0.271-1.319,0.812-1.765c0.539-0.443,1.276-0.666,2.215-0.666c2.326,0,4.582,0.828,6.768,2.483l2.844-4.104
				c-1.247-1.058-2.713-1.872-4.393-2.448s-3.359-0.864-5.039-0.864c-2.568,0-4.711,0.648-6.426,1.944
				c-1.717,1.296-2.574,3.138-2.574,5.526c0,2.388,0.678,4.14,2.033,5.256c1.354,1.114,3.498,2.021,6.426,2.718
				c1.848,0.456,3.084,0.906,3.709,1.351c0.623,0.443,0.937,1.043,0.937,1.8c0,0.756-0.296,1.355-0.884,1.801
				c-0.588,0.444-1.397,0.666-2.43,0.666c-2.303,0-4.813-1.188-7.522-3.564l-3.349,4.104c3.191,2.953,6.779,4.429,10.765,4.429
				c2.76,0,4.985-0.702,6.678-2.106c1.691-1.403,2.539-3.232,2.539-5.489C385.33,92.014,384.667,90.298,383.349,89.121z"/>
		</g>
	</g>
</g>
<g id="Kreska">
	<g>
		<line fill="#FFFFFF" x1="2.026" y1="116.54" x2="384.84" y2="116.54"/>
		<path fill="#FFFFFF" d="M384.84,118.54H2.026c-1.104,0-2-0.896-2-2c0-1.104,0.896-2,2-2H384.84c1.104,0,2,0.896,2,2
			C386.84,117.644,385.945,118.54,384.84,118.54z"/>
	</g>
</g>
<g id="logoname">
	<g>
		<path fill="#FFFFFF" d="M115.863,140.845l2.809-9.055h1.908l2.808,9.055l3.168-9.055h2.286l-4.392,12.582h-2.106l-2.646-8.622
			h-0.144l-2.646,8.622h-2.106l-4.392-12.582h2.285L115.863,140.845z"/>
		<path fill="#FFFFFF" d="M130.929,131.791h2.016v5.832l1.351-0.396v1.891l-1.351,0.396v4.859h-2.016v-4.302l-1.476,0.414v-1.891
			l1.476-0.414V131.791z"/>
		<path fill="#FFFFFF" d="M144.284,143.086c-0.96,0.954-2.16,1.432-3.601,1.432c-1.439,0-2.64-0.478-3.6-1.432
			s-1.44-2.121-1.44-3.501s0.479-2.547,1.44-3.501c0.96-0.954,2.16-1.431,3.6-1.431c1.44,0,2.641,0.477,3.601,1.431
			s1.439,2.121,1.439,3.501S145.244,142.132,144.284,143.086z M138.516,141.844c0.57,0.582,1.292,0.873,2.169,0.873
			c0.875,0,1.6-0.291,2.169-0.873c0.57-0.581,0.855-1.335,0.855-2.259s-0.285-1.677-0.855-2.259
			c-0.569-0.582-1.293-0.873-2.169-0.873s-1.599,0.291-2.169,0.873s-0.854,1.335-0.854,2.259S137.945,141.262,138.516,141.844z"/>
		<path fill="#FFFFFF" d="M148.748,143.149c-0.9-0.912-1.351-2.112-1.351-3.602c0-1.486,0.461-2.676,1.387-3.563
			c0.924-0.889,2.024-1.332,3.303-1.332c1.277,0,2.307,0.54,3.087,1.62v-5.257h2.016v13.355h-2.016v-1.439
			c-0.744,1.057-1.83,1.584-3.258,1.584C150.704,144.517,149.648,144.062,148.748,143.149z M149.414,139.63
			c0,0.918,0.294,1.665,0.882,2.241s1.278,0.864,2.07,0.864s1.464-0.291,2.016-0.873s0.828-1.329,0.828-2.241
			s-0.276-1.674-0.828-2.286c-0.552-0.611-1.23-0.918-2.034-0.918s-1.494,0.307-2.07,0.918
			C149.702,137.947,149.414,138.712,149.414,139.63z"/>
		<path fill="#FFFFFF" d="M169.017,140.467h-7.506c0.048,0.696,0.366,1.259,0.954,1.685s1.26,0.639,2.016,0.639
			c1.2,0,2.112-0.378,2.736-1.134l1.152,1.26c-1.032,1.068-2.376,1.603-4.032,1.603c-1.344,0-2.487-0.446-3.429-1.342
			c-0.942-0.894-1.413-2.094-1.413-3.6s0.479-2.703,1.439-3.591c0.96-0.889,2.091-1.332,3.394-1.332c1.302,0,2.408,0.393,3.32,1.179
			s1.368,1.869,1.368,3.249V140.467L169.017,140.467z M161.51,138.883H167c0-0.804-0.252-1.422-0.756-1.854
			c-0.504-0.433-1.125-0.648-1.863-0.648s-1.401,0.227-1.989,0.676S161.51,138.115,161.51,138.883z"/>
		<path fill="#FFFFFF" d="M173.247,144.373h-2.017v-13.355h2.017v7.849l3.888-4.068h2.592l-3.636,3.799l3.906,5.777h-2.448
			l-2.844-4.193l-1.458,1.477V144.373L173.247,144.373z"/>
		<path fill="#FFFFFF" d="M186.908,131.791h2.125v6.139l5.76-6.139h2.699l-5.058,5.508l5.129,7.074h-2.52l-4.176-5.508l-1.836,1.979
			v3.528h-2.125L186.908,131.791L186.908,131.791z"/>
		<path fill="#FFFFFF" d="M206.564,143.086c-0.96,0.954-2.16,1.432-3.6,1.432c-1.44,0-2.642-0.478-3.602-1.432
			s-1.438-2.121-1.438-3.501s0.479-2.547,1.438-3.501s2.16-1.431,3.602-1.431c1.438,0,2.64,0.477,3.6,1.431s1.44,2.121,1.44,3.501
			S207.524,142.132,206.564,143.086z M200.795,141.844c0.568,0.582,1.293,0.873,2.169,0.873s1.599-0.291,2.169-0.873
			c0.569-0.581,0.854-1.335,0.854-2.259s-0.284-1.677-0.854-2.259c-0.57-0.582-1.293-0.873-2.169-0.873s-1.601,0.291-2.169,0.873
			c-0.57,0.582-0.855,1.335-0.855,2.259S200.225,141.262,200.795,141.844z"/>
		<path fill="#FFFFFF" d="M209.876,136.562v-1.729h7.486v1.818l-5.382,5.976h5.67v1.746h-8.136v-1.962l5.238-5.85L209.876,136.562
			L209.876,136.562z"/>
		<path fill="#FFFFFF" d="M220.333,131.791h2.016v5.832l1.352-0.396v1.891l-1.352,0.396v4.859h-2.016v-4.302l-1.477,0.414v-1.891
			l1.477-0.414V131.791z"/>
		<path fill="#FFFFFF" d="M233.689,143.086c-0.96,0.954-2.16,1.432-3.6,1.432c-1.44,0-2.642-0.478-3.602-1.432
			s-1.438-2.121-1.438-3.501s0.479-2.547,1.438-3.501s2.16-1.431,3.602-1.431c1.438,0,2.64,0.477,3.6,1.431s1.44,2.121,1.44,3.501
			S234.649,142.132,233.689,143.086z M227.92,141.844c0.568,0.582,1.293,0.873,2.169,0.873s1.599-0.291,2.169-0.873
			c0.569-0.581,0.854-1.335,0.854-2.259s-0.284-1.677-0.854-2.259c-0.57-0.582-1.293-0.873-2.169-0.873s-1.601,0.291-2.169,0.873
			c-0.57,0.582-0.855,1.335-0.855,2.259S227.35,141.262,227.92,141.844z"/>
		<path fill="#FFFFFF" d="M241.772,144.373h-2.305l-3.313-9.576h2.089l2.376,7.236l2.376-7.236h2.088l2.376,7.236l2.376-7.236h2.088
			l-3.313,9.576h-2.305l-2.268-6.552L241.772,144.373z"/>
		<path fill="#FFFFFF" d="M260.456,141.51c0,0.912-0.33,1.643-0.99,2.188s-1.506,0.818-2.538,0.818
			c-0.696,0-1.419-0.126-2.169-0.378s-1.413-0.605-1.989-1.063l0.974-1.566c1.114,0.842,2.194,1.262,3.238,1.262
			c0.456,0,0.816-0.105,1.08-0.315c0.265-0.21,0.396-0.477,0.396-0.801c0-0.48-0.638-0.912-1.908-1.296
			c-0.097-0.036-0.168-0.062-0.216-0.072c-1.992-0.54-2.988-1.439-2.988-2.7c0-0.888,0.345-1.599,1.035-2.133
			c0.688-0.534,1.587-0.801,2.69-0.801c1.104,0,2.147,0.323,3.133,0.972l-0.757,1.494c-0.779-0.516-1.627-0.773-2.537-0.773
			c-0.48,0-0.87,0.088-1.17,0.262c-0.302,0.174-0.45,0.435-0.45,0.782c0,0.313,0.154,0.54,0.468,0.685
			c0.216,0.107,0.519,0.21,0.909,0.306c0.39,0.098,0.733,0.192,1.035,0.288c0.3,0.098,0.591,0.204,0.873,0.324
			c0.28,0.12,0.585,0.288,0.907,0.504C260.131,139.927,260.456,140.6,260.456,141.51z"/>
		<path fill="#FFFFFF" d="M264.757,144.373h-2.016v-13.355h2.016v7.849l3.889-4.068h2.592l-3.636,3.799l3.905,5.777h-2.447
			l-2.845-4.193l-1.458,1.477V144.373L264.757,144.373z"/>
		<path fill="#FFFFFF" d="M273.326,132.889c-0.253-0.252-0.379-0.553-0.379-0.899s0.127-0.648,0.379-0.9s0.552-0.378,0.899-0.378
			s0.647,0.126,0.899,0.378s0.378,0.554,0.378,0.9s-0.126,0.647-0.378,0.899s-0.553,0.378-0.899,0.378
			C273.877,133.267,273.578,133.141,273.326,132.889z M275.215,144.373H273.2v-9.576h2.016L275.215,144.373L275.215,144.373z"/>
	</g>
</g>
</svg>
