<?xml version="1.0" encoding="utf-8"?>
<!-- Generator: Adobe Illustrator 16.0.3, SVG Export Plug-In . SVG Version: 6.00 Build 0)  -->
<!DOCTYPE svg PUBLIC "-//W3C//DTD SVG 1.1//EN" "http://www.w3.org/Graphics/SVG/1.1/DTD/svg11.dtd">
<svg version="1.1" id="Filmowanie" xmlns="http://www.w3.org/2000/svg" xmlns:xlink="http://www.w3.org/1999/xlink" x="0px" y="0px"
	 width="160px" height="160px" viewBox="0 0 160 160" enable-background="new 0 0 160 160" xml:space="preserve">
<path fill-rule="evenodd" clip-rule="evenodd" fill="#FFFFFF" d="M80,160c-44.183,0-80-35.817-80-80S35.817,0,80,0s80,35.817,80,80
	S124.183,160,80,160z M80,4C38.026,4,4,38.026,4,80s34.026,76,76,76s76-34.026,76-76S121.974,4,80,4z M114.5,114.848h-46
	c-6.352,0-11.5-5.2-11.5-11.616c0,0,0-0.743,0-1.937l-23,7.744V74.191l23,7.744c0-1.198,0-1.937,0-1.937
	c0-5.503,3.792-10.101,8.877-11.301c-1.952-2.479-3.127-5.612-3.127-9.027c0-8.02,6.436-14.521,14.375-14.521h28.75
	c7.938,0,14.375,6.501,14.375,14.521c0,3.415-1.175,6.548-3.128,9.027c5.086,1.2,8.878,5.798,8.878,11.301v23.232
	C126,109.647,120.852,114.848,114.5,114.848z"/>
</svg>
