<?xml version="1.0" encoding="utf-8"?>
<!-- Generator: Adobe Illustrator 16.0.3, SVG Export Plug-In . SVG Version: 6.00 Build 0)  -->
<!DOCTYPE svg PUBLIC "-//W3C//DTD SVG 1.1//EN" "http://www.w3.org/Graphics/SVG/1.1/DTD/svg11.dtd">
<svg version="1.1" xmlns="http://www.w3.org/2000/svg" xmlns:xlink="http://www.w3.org/1999/xlink" x="0px" y="0px" width="128px"
	 height="128px" viewBox="0 0 128 128" enable-background="new 0 0 128 128" xml:space="preserve">
<g id="Layer_2">
	<path fill="#2C2C2C" d="M64,1c34.738,0,63,28.261,63,63c0,34.739-28.262,63-63,63S1,98.739,1,64C1,29.262,29.262,1,64,1 M64,0
		C28.654,0,0,28.654,0,64c0,35.346,28.654,64,64,64c35.346,0,64-28.654,64-64C128,28.654,99.346,0,64,0L64,0z"/>
</g>
<g id="Layer_4_copy_2" display="none">
	<path display="inline" fill="#026BB5" d="M68,67.988V39.935c0-2.923-1.084-4.01-4-4.01s-4,1.087-4,4.01v28.054
		c-3.051,1.519-5,4.593-5,8.047c0,1.897,0.82,3.208,1.613,4.475c1.282,2.046,2.734,4.365,1.41,10.35
		c-0.083,0.376,0.058,0.768,0.361,1.005c0.18,0.14,0.396,0.211,0.615,0.211c0.152,0,0.307-0.035,0.447-0.106
		C70.648,86.357,73,80.207,73,76.036C73,72.581,71.049,69.504,68,67.988z M62,39.935c0-1.803,0.206-2.01,2-2.01s2,0.207,2,2.01
		V67.24c0,0.005-0.002,0.008-0.002,0.013c-1.313-0.299-2.688-0.299-3.995-0.001C62.002,67.247,62,67.245,62,67.24V39.935z
		 M60.354,89.229c0.748-5.32-0.785-7.77-2.045-9.78C57.578,78.281,57,77.359,57,76.036c0-2.871,1.718-5.424,4.382-6.506
		c0.826-0.342,1.707-0.515,2.618-0.515s1.792,0.173,2.624,0.517C69.282,70.612,71,73.165,71,76.036
		C71,80.741,67.238,85.38,60.354,89.229z"/>
</g>
<g id="Layer_3_copy">
	<g>
		<path fill="#026BB5" d="M79,40.505H62.96c0.023-0.164,0.04-0.331,0.04-0.5c0-1.93-1.57-3.5-3.5-3.5h-8c-1.93,0-3.5,1.57-3.5,3.5
			c0,0.197,0.02,0.392,0.052,0.583C45.193,41.044,43,43.52,43,46.505v15.001c0,3.309,2.691,6,6,6h4.465L48.13,87.085
			c-0.245,0.896-0.123,1.835,0.343,2.643c0.473,0.819,1.242,1.404,2.165,1.647c0.304,0.08,0.61,0.118,0.911,0.118
			c1.563,0,2.998-1.031,3.422-2.59l5.831-21.397h6.375L72.909,88.9c0.242,0.903,0.821,1.658,1.631,2.125
			c0.539,0.312,1.138,0.471,1.744,0.471c0.304,0,0.609-0.04,0.911-0.121c0.903-0.242,1.658-0.821,2.125-1.63
			c0.468-0.81,0.592-1.753,0.35-2.655l-5.247-19.583H79c3.309,0,6-2.691,6-6V46.505C85,43.197,82.309,40.505,79,40.505z
			 M51.5,38.505h8c0.827,0,1.5,0.673,1.5,1.5c0,0.174-0.033,0.341-0.089,0.5H50.093C50.036,40.346,50,40.179,50,40.005
			C50,39.178,50.673,38.505,51.5,38.505z M53.041,88.378c-0.219,0.804-1.071,1.279-1.894,1.063c-0.403-0.106-0.738-0.36-0.942-0.714
			c-0.197-0.342-0.249-0.738-0.146-1.117l5.479-20.104h3.191L53.041,88.378z M77.738,87.607c0.104,0.387,0.051,0.791-0.149,1.138
			s-0.524,0.595-0.911,0.698c-0.387,0.102-0.793,0.049-1.138-0.149c-0.348-0.2-0.596-0.524-0.699-0.911l-5.594-20.876h3.105
			L77.738,87.607z M83,61.506c0,2.206-1.794,4-4,4H49c-2.206,0-4-1.794-4-4V46.505c0-2.205,1.794-4,4-4h30c2.206,0,4,1.795,4,4
			V61.506z"/>
		<path fill="#026BB5" d="M51.5,45.505c-1.93,0-3.5,1.57-3.5,3.5s1.57,3.5,3.5,3.5s3.5-1.57,3.5-3.5S53.43,45.505,51.5,45.505z
			 M51.5,50.505c-0.827,0-1.5-0.673-1.5-1.5s0.673-1.5,1.5-1.5s1.5,0.673,1.5,1.5S52.327,50.505,51.5,50.505z"/>
		<path fill="#026BB5" d="M70.5,45.505c-4.687,0-8.5,3.813-8.5,8.5c0,4.688,3.813,8.501,8.5,8.501s8.5-3.813,8.5-8.501
			C79,49.319,75.187,45.505,70.5,45.505z M70.5,60.506c-3.584,0-6.5-2.916-6.5-6.501c0-3.584,2.916-6.5,6.5-6.5s6.5,2.916,6.5,6.5
			C77,57.59,74.084,60.506,70.5,60.506z"/>
	</g>
</g>
</svg>
