<?xml version="1.0" encoding="utf-8"?>
<!-- Generator: Adobe Illustrator 16.0.3, SVG Export Plug-In . SVG Version: 6.00 Build 0)  -->
<!DOCTYPE svg PUBLIC "-//W3C//DTD SVG 1.1//EN" "http://www.w3.org/Graphics/SVG/1.1/DTD/svg11.dtd">
<svg version="1.1" id="Grafika_i_animacja" xmlns="http://www.w3.org/2000/svg" xmlns:xlink="http://www.w3.org/1999/xlink" x="0px"
	 y="0px" width="160px" height="160px" viewBox="0 0 160 160" enable-background="new 0 0 160 160" xml:space="preserve">
<path fill-rule="evenodd" clip-rule="evenodd" fill="#FFFFFF" d="M80,160c-44.183,0-80-35.817-80-80S35.817,0,80,0s80,35.817,80,80
	S124.183,160,80,160z M80,4C38.026,4,4,38.026,4,80s34.026,76,76,76s76-34.026,76-76S121.974,4,80,4z M76.785,96.292
	c-0.191,0.241-0.395,0.476-0.617,0.699c-3.135,3.135-8.218,3.135-11.353,0c-3.136-3.136-3.136-8.218,0-11.353
	c0.223-0.224,0.458-0.426,0.698-0.617l47.551-41.956c0,0,2.838-2.838,5.676,0c2.839,2.838,0,5.676,0,5.676L76.785,96.292z
	 M115.902,45.903c-0.6-0.599-1.135,0-1.135,0L67.653,88.477c-1.567,1.567-1.567,4.108,0,5.676s4.108,1.567,5.677,0l42.572-47.113
	C115.902,47.039,116.435,46.436,115.902,45.903z M68.097,102.139c0,12.041-8.028,16.055-16.056,16.055S40,110.166,40,110.166
	c12.041,2.292,8.551-3.841,10.436-10.436c1.605-5.619,5.619-7.878,9.633-5.619C60.068,98.125,64.082,102.139,68.097,102.139z"/>
</svg>
