<?xml version="1.0" encoding="utf-8"?>
<!-- Generator: Adobe Illustrator 16.0.3, SVG Export Plug-In . SVG Version: 6.00 Build 0)  -->
<!DOCTYPE svg PUBLIC "-//W3C//DTD SVG 1.1//EN" "http://www.w3.org/Graphics/SVG/1.1/DTD/svg11.dtd">
<svg version="1.1" xmlns="http://www.w3.org/2000/svg" xmlns:xlink="http://www.w3.org/1999/xlink" x="0px" y="0px" width="128px"
	 height="128px" viewBox="0 0 128 128" enable-background="new 0 0 128 128" xml:space="preserve">
<g id="Layer_2">
	<path fill="#2C2C2C" d="M64,1c34.738,0,63,28.261,63,63c0,34.739-28.262,63-63,63S1,98.739,1,64C1,29.262,29.262,1,64,1 M64,0
		C28.654,0,0,28.654,0,64c0,35.346,28.654,64,64,64c35.346,0,64-28.654,64-64C128,28.654,99.346,0,64,0L64,0z"/>
</g>
<g id="Layer_4_copy_2">
	<path fill="#026BB5" d="M68,67.988V39.935c0-2.923-1.084-4.01-4-4.01s-4,1.087-4,4.01v28.054c-3.051,1.519-5,4.593-5,8.047
		c0,1.897,0.82,3.208,1.613,4.475c1.282,2.046,2.734,4.365,1.41,10.35c-0.083,0.376,0.058,0.768,0.361,1.005
		c0.18,0.14,0.396,0.211,0.615,0.211c0.152,0,0.307-0.035,0.447-0.106C70.648,86.357,73,80.207,73,76.036
		C73,72.581,71.049,69.504,68,67.988z M62,39.935c0-1.803,0.206-2.01,2-2.01s2,0.207,2,2.01V67.24c0,0.005-0.002,0.008-0.002,0.013
		c-1.313-0.299-2.688-0.299-3.995-0.001C62.002,67.247,62,67.245,62,67.24V39.935z M60.354,89.229c0.748-5.32-0.785-7.77-2.045-9.78
		C57.578,78.281,57,77.359,57,76.036c0-2.871,1.718-5.424,4.382-6.506c0.826-0.342,1.707-0.515,2.618-0.515s1.792,0.173,2.624,0.517
		C69.282,70.612,71,73.165,71,76.036C71,80.741,67.238,85.38,60.354,89.229z"/>
</g>
</svg>
