<?xml version="1.0" encoding="utf-8"?>
<!-- Generator: Adobe Illustrator 16.0.3, SVG Export Plug-In . SVG Version: 6.00 Build 0)  -->
<!DOCTYPE svg PUBLIC "-//W3C//DTD SVG 1.1//EN" "http://www.w3.org/Graphics/SVG/1.1/DTD/svg11.dtd">
<svg version="1.1" xmlns="http://www.w3.org/2000/svg" xmlns:xlink="http://www.w3.org/1999/xlink" x="0px" y="0px" width="128px"
	 height="128px" viewBox="0 0 128 128" enable-background="new 0 0 128 128" xml:space="preserve">
<g id="Layer_1">
</g>
<g id="Layer_2">
	<path fill="#2C2C2C" d="M64,1c34.738,0,63,28.261,63,63C127,98.739,98.738,127,64,127S1,98.739,1,64C1,29.261,29.262,1,64,1 M64,0
		C28.654,0,0,28.654,0,64C0,99.346,28.654,128,64,128c35.346,0,64-28.654,64-64.001C128,28.654,99.346,0,64,0L64,0z"/>
</g>
<g id="Layer_3">
	<g>
		<path fill="#026BB5" d="M74,86.5H54c-1.93,0-3.5-1.57-3.5-3.5s1.57-3.5,3.5-3.5h5.5c0.143-0.011,1-0.159,1-2c0-0.553,0.448-1,1-1
			h5c0.553,0,1,0.447,1,1c0,1.903,1.666,2,2,2H74c1.93,0,3.5,1.57,3.5,3.5S75.93,86.5,74,86.5z M54,81.5c-0.827,0-1.5,0.673-1.5,1.5
			s0.673,1.5,1.5,1.5h20c0.827,0,1.5-0.673,1.5-1.5s-0.673-1.5-1.5-1.5h-4.5c-1.41,0-3.423-0.819-3.897-3h-3.176
			c-0.365,2.345-2.008,3-2.927,3H54z M81.5,73.5h-35c-3.309,0-6-2.691-6-6v-20c0-3.309,2.691-6,6-6h35c3.309,0,6,2.691,6,6v20
			C87.5,70.809,84.809,73.5,81.5,73.5z M46.5,43.5c-2.206,0-4,1.794-4,4v20c0,2.206,1.794,4,4,4h35c2.206,0,4-1.794,4-4v-20
			c0-2.206-1.794-4-4-4H46.5z"/>
	</g>
</g>
</svg>
