<?xml version="1.0" encoding="utf-8"?>
<!-- Generator: Adobe Illustrator 16.0.3, SVG Export Plug-In . SVG Version: 6.00 Build 0)  -->
<!DOCTYPE svg PUBLIC "-//W3C//DTD SVG 1.1//EN" "http://www.w3.org/Graphics/SVG/1.1/DTD/svg11.dtd">
<svg version="1.1" id="Web_design" xmlns="http://www.w3.org/2000/svg" xmlns:xlink="http://www.w3.org/1999/xlink" x="0px" y="0px"
	 width="160px" height="160px" viewBox="0 0 160 160" enable-background="new 0 0 160 160" xml:space="preserve">
<path fill-rule="evenodd" clip-rule="evenodd" fill="#FFFFFF" d="M80,160c-44.183,0-80-35.817-80-80S35.817,0,80,0s80,35.817,80,80
	S124.183,160,80,160z M80,4C38.026,4,4,38.026,4,80s34.026,76,76,76s76-34.026,76-76S121.974,4,80,4z M80.007,134.998
	C49.639,134.998,25,110.365,25,80.005s24.639-54.993,55.007-54.993s55.007,24.633,55.007,54.993S110.375,134.998,80.007,134.998z
	 M110.16,54.657c0,0.072-0.143,0.287-0.43,0.573c0.072-1.074-1.289-0.286-1.79-0.43c-1.647-0.43-1.433-1.575-1.934-2.792
	c-0.286-0.645-1.075-0.859-1.36-1.503c-0.287-0.43-0.431-1.361-1.075-1.432c-0.43-0.072-1.218,1.503-1.36,1.432
	c-0.645-0.358-0.932,0.143-1.433,0.43c-0.43,0.286-0.788,0.143-1.218,0.357c1.289-0.43-0.573-1.146-1.218-1.002
	c1.003-0.287,0.501-1.36-0.071-1.862c0.143,0,0.215,0,0.357,0c-0.143-0.645-2.148-1.217-2.793-1.646s-4.082-1.146-4.799-0.716
	c-0.859,0.501,0.215,1.934,0.215,2.649c0.072,0.86-0.859,1.074-0.859,1.791c0,1.217,2.292,1.002,1.719,2.649
	c-0.357,1.003-1.719,1.217-2.292,2.005c-0.573,0.716,0.071,2.005,0.646,2.506c0.572,0.43-1.004,1.146-1.219,1.289
	c-1.217,0.573-2.148-1.218-2.435-2.292c-0.215-0.788-0.286-1.718-1.146-2.148c-0.43-0.144-1.791-0.358-2.078,0.071
	c-0.43-1.074-1.934-1.504-2.936-1.861c-1.433-0.501-2.651-0.501-4.155-0.287c0.501-0.071-0.143-2.291-1.361-1.933
	c0.358-0.716,0.215-1.504,0.358-2.22c0.143-0.573,0.429-1.146,0.859-1.647c0.143-0.286,1.719-1.933,1.217-2.005
	c1.218,0.144,2.579,0.215,3.582-0.788c0.645-0.644,0.931-1.718,1.575-2.434c0.932-1.074,2.078,0.287,3.08,0.358
	c1.433,0.072,1.361-1.503,0.573-2.22c0.931,0.072,0.144-1.647-0.358-1.861c-0.645-0.215-3.08,0.43-1.791,0.931
	c-0.286-0.144-2.005,3.437-3.008,1.647c-0.287-0.358-0.43-1.862-1.074-1.934c-0.573,0-0.931,0.645-1.146,1.074
	c0.358-0.931-2.005-1.575-2.507-1.647c1.074-0.716,0.215-1.503-0.573-1.933c-0.573-0.358-2.363-0.645-2.865-0.072
	c-1.361,1.647,1.433,1.861,2.149,2.291c0.215,0.144,1.074,0.645,0.573,1.003c-0.43,0.215-1.719,0.573-1.862,0.859
	c-0.43,0.645,0.501,1.36-0.143,2.005c-0.604-0.604-0.656-1.573-1.069-2.283c0.111,0.574-2.65,0.207-2.583,0.207
	c-1.074,0-2.793,0.716-3.581-0.358c-0.144-0.287-0.144-1.934,0.287-1.576c-0.645-0.5-1.075-1.002-1.504-1.289
	c-2.364,0.788-4.584,1.79-6.732,2.936c0.286,0.072,0.501,0.072,0.859-0.071c0.573-0.215,1.074-0.573,1.647-0.859
	c0.716-0.287,2.22-1.146,3.008-0.501c0.072-0.144,0.287-0.287,0.358-0.358c0.501,0.573,1.002,1.146,1.432,1.79
	c-0.573-0.286-1.504-0.143-2.148-0.071c-0.501,0.143-1.361,0.286-1.576,0.859c0.215,0.357,0.501,0.931,0.358,1.289
	c-0.931-0.645-1.647-1.719-2.937-1.862c-0.573,0-1.146,0-1.576,0.072c-6.876,3.795-12.677,9.309-16.832,15.896
	c0.287,0.287,0.573,0.501,0.859,0.573c0.716,0.215,0,2.291,1.361,1.217c0.43,0.358,0.501,0.859,0.215,1.36
	c0.072-0.071,2.937,1.791,3.151,1.934c0.501,0.429,1.29,0.93,1.504,1.503c0.143,0.501-0.287,1.074-0.716,1.289
	c-0.072-0.143-1.146-1.217-1.289-0.931c-0.215,0.358,0,2.291,0.788,2.22c-1.146,0.071-0.645,4.511-0.931,5.37
	c0,0.071,0.144,0.071,0.144,0.071c-0.215,0.859,0.501,4.225,1.934,3.867c-0.931,0.215,1.647,3.509,2.005,3.724
	c0.931,0.645,2.005,1.074,2.65,2.005c0.716,1.002,0.716,2.506,1.719,3.294c-0.287,0.858,1.504,1.861,1.433,3.079
	c-0.144,0.071-0.215,0.071-0.358,0.143c0.358,1.003,1.719,1.003,2.221,1.934c0.287,0.572,0,1.934,0.931,1.646
	c0.143-1.574-0.931-3.15-1.719-4.438c-0.43-0.717-0.859-1.361-1.218-2.077c-0.358-0.645-0.429-1.432-0.716-2.148
	c0.287,0.072,1.862,0.645,1.719,0.859c-0.573,1.433,2.292,3.938,3.08,4.869c0.215,0.215,1.862,2.363,1.003,2.363
	c0.931,0,2.221,1.432,2.65,2.148c0.645,1.074,0.501,2.434,0.931,3.58c0.43,1.432,2.436,2.076,3.582,2.721
	c1.002,0.501,1.862,1.217,2.865,1.575c1.504,0.573,1.862,0.071,3.151-0.144c1.862-0.286,2.077,1.791,3.582,2.578
	c0.931,0.502,2.937,1.218,3.939,0.788c-0.43,0.144,1.504,3.079,1.647,3.294c0.645,0.859,1.862,1.288,2.579,2.147
	c0.215-0.144,0.43-0.357,0.501-0.645c-0.286,0.788,1.074,2.292,1.79,2.148c0.788-0.144,1.003-1.718,1.003-2.291
	c-1.433,0.716-2.722,0.143-3.509-1.289c-0.145-0.358-1.29-2.363-0.287-2.363c1.361,0,0.43-1.074,0.287-2.076
	c-0.145-1.003-1.146-1.647-1.648-2.507c-0.43,0.859-1.861,0.645-2.291-0.071c0,0.215-0.215,0.573-0.215,0.859
	c-0.358,0-0.717,0.071-1.075-0.071c0.143-0.859,0.215-1.934,0.43-2.864c0.357-1.289,2.721-3.796-0.359-3.652
	c-1.074,0.072-1.503,0.502-1.861,1.433c-0.358,0.859-0.215,1.646-1.218,2.076c-0.645,0.286-2.793,0.144-3.438-0.215
	c-1.361-0.787-2.292-3.294-2.292-4.726c-0.072-1.934,0.931-3.652,0-5.442c0.43-0.357,0.859-1.074,1.361-1.432
	c0.43-0.287,0.931,0.215,1.146-0.645c-0.215-0.144-0.501-0.43-0.573-0.43c1.074,0.501,3.08-0.716,4.011,0
	c0.573,0.43,1.218,0.572,1.576-0.144c0.072-0.215-0.501-1.074-0.215-1.646c0.215,1.217,1.002,1.432,2.078,0.645
	c0.43,0.43,1.575,0.286,2.363,0.716c0.787,0.501,0.931,1.289,1.862,0.215c0.573,0.859,0.645,0.859,0.859,1.719
	c0.215,0.787,0.645,2.792,1.36,3.15c1.504,0.931,1.146-1.575,1.003-2.435c-0.071-0.071-0.071-2.435-0.144-2.435
	c-2.291-0.501-1.432-2.291-0.143-3.509c0.215-0.144,1.861-0.716,2.578-1.289c0.645-0.572,1.433-1.575,1.074-2.506
	c0.358,0,0.645-0.287,0.788-0.645c-0.215-0.072-1.074-0.788-1.218-0.716c0.502-0.287,0.43-0.716,0.144-1.146
	c0.716-0.43,0.358-1.217,1.074-1.503c0.788,1.074,2.364-0.144,1.575-1.002c0.717-1.002,2.364-0.501,2.794-1.432
	c1.074,0.286,0.286-1.074,0.859-1.862c0.501-0.644,1.36-0.644,2.005-1.002c0,0.071,1.791-1.003,1.219-1.074
	c1.217,0.144,3.652-1.146,1.79-2.22c0.286-0.645-0.645-0.931-1.289-1.074c0.501-0.143,1.146,0.144,1.575-0.143
	c0.932-0.645,0.287-0.931-0.501-1.146c-1.003-0.286-2.292,0.358-3.08,0.859c-0.573,0.43-0.931,1.217-1.647,1.36
	c0.358-0.071,0.717-1.36,0.932-1.646c0.43-0.501,1.002-0.788,1.576-1.074c1.217-0.501,2.435-0.645,3.724-0.859
	c1.218-0.286,2.722-0.286,3.653,0.788c-0.215-0.214,1.504-1.718,1.719-1.79c0.645-0.358,1.719-0.215,2.148-0.859
	c0.144-0.215,0.144-1.576,0.144-1.576C110.662,56.805,110.232,55.659,110.16,54.657z M111.307,111.01
	c-0.572-0.215-1.002-0.43-1.719-0.572c0.143-1.432-1.433-1.934-2.436-2.649c-0.931-0.716-1.504-1.504-2.865-1.218
	c-0.143,0.072-1.575,0.573-1.289,0.859c-0.931-0.787-1.36-1.217-2.578-1.575c-1.146-0.358-1.934-1.79-3.08-0.501
	c-0.572,0.572-0.286,1.432-0.572,2.005c-0.932-0.788,0.859-1.719,0.143-2.578c-0.859-1.003-2.363,0.645-3.08,1.074
	c-0.43,0.358-0.931,0.501-1.217,0.931c-0.358,0.501-0.502,1.146-0.788,1.646c-0.215-0.572-1.433-0.43-1.505-0.858
	c0.287,1.719,0.287,3.509,0.646,5.227c0.215,1.003,0,2.649-0.86,3.438c-0.859,0.788-1.934,1.646-2.076,2.864
	c-0.144,0.859,0.071,1.646,0.859,1.861c0.071,1.074-1.146,1.862-1.074,3.008c0,0.071,0.071,0.787,0.143,1.146
	c9.813-1.718,18.551-6.588,25.141-13.533C112.668,111.153,111.88,111.297,111.307,111.01z"/>
</svg>
