<?xml version="1.0" encoding="utf-8"?>
<!-- Generator: Adobe Illustrator 16.0.3, SVG Export Plug-In . SVG Version: 6.00 Build 0)  -->
<!DOCTYPE svg PUBLIC "-//W3C//DTD SVG 1.1//EN" "http://www.w3.org/Graphics/SVG/1.1/DTD/svg11.dtd">
<svg version="1.1" id="Layer_1" xmlns="http://www.w3.org/2000/svg" xmlns:xlink="http://www.w3.org/1999/xlink" x="0px" y="0px"
	 width="1024px" height="1024px" viewBox="0 0 1024 1024" enable-background="new 0 0 1024 1024" xml:space="preserve">
<g id="Tlo">
	<path fill="#141414" d="M0,0h1024v1024H0V0z"/>
</g>
<g id="Kolka">
	<g>
		<image overflow="visible" width="347" height="346" xlink:href="BC4DD0D6.png"  transform="matrix(1 0 0 1 672.5 79.4998)">
		</image>
	</g>
	<g>
		<image overflow="visible" width="1125" height="1125" xlink:href="BC4DD0DA.png"  transform="matrix(1 0 0 1 -292.5 -867.5002)">
		</image>
	</g>
	<g>
		<image overflow="visible" width="428" height="428" xlink:href="BC4DD0DD.png"  transform="matrix(1 0 0 1 45.5 271.4998)">
		</image>
	</g>
	<g opacity="0.9" enable-background="new    ">
		<image overflow="visible" width="904" height="904" xlink:href="BC4DD0DE.png"  transform="matrix(1 0 0 1 -292.5 446.4998)">
		</image>
	</g>
	
		<linearGradient id="SVGID_1_" gradientUnits="userSpaceOnUse" x1="175.4951" y1="316.696" x2="1006.3994" y2="316.696" gradientTransform="matrix(0.9511 0.309 0.309 -0.9511 -51.378 754.3414)">
		<stop  offset="0" style="stop-color:#0063A9"/>
		<stop  offset="0.5075" style="stop-color:#0C85D6"/>
		<stop  offset="1" style="stop-color:#43C3FF"/>
	</linearGradient>
	<path opacity="0.9" fill="url(#SVGID_1_)" enable-background="new    " d="M736.92,240.601
		c218.226,70.905,337.651,305.293,266.745,523.519c-70.905,218.227-305.293,337.652-523.52,266.746
		C261.921,959.961,142.494,725.572,213.4,507.347C284.306,289.121,518.694,169.695,736.92,240.601z"/>
	<g>
		<image overflow="visible" width="944" height="944" xlink:href="BC4DD0DC.png"  transform="matrix(1 0 0 1 654.5 479.4998)">
		</image>
	</g>
	<g opacity="0.95" enable-background="new    ">
		<image overflow="visible" width="1125" height="1126" xlink:href="BC4DD0DB.png"  transform="matrix(1 0 0 1 445.5 751.4998)">
		</image>
	</g>
</g>
</svg>
