<?xml version="1.0" encoding="UTF-8" standalone="no"?>
<!-- Generator: Adobe Illustrator 16.0.3, SVG Export Plug-In . SVG Version: 6.00 Build 0)  -->

<svg
   xmlns:dc="http://purl.org/dc/elements/1.1/"
   xmlns:cc="http://creativecommons.org/ns#"
   xmlns:rdf="http://www.w3.org/1999/02/22-rdf-syntax-ns#"
   xmlns:svg="http://www.w3.org/2000/svg"
   xmlns="http://www.w3.org/2000/svg"
   xmlns:sodipodi="http://sodipodi.sourceforge.net/DTD/sodipodi-0.dtd"
   xmlns:inkscape="http://www.inkscape.org/namespaces/inkscape"
   version="1.1"
   x="0px"
   y="0px"
   width="1024px"
   height="1024px"
   viewBox="0 0 1024 1024"
   enable-background="new 0 0 1024 1024"
   xml:space="preserve"
   id="svg3053"
   inkscape:version="0.48.2 r9819"
   sodipodi:docname="splash.svg"><metadata
   id="metadata3119"><rdf:RDF><cc:Work
       rdf:about=""><dc:format>image/svg+xml</dc:format><dc:type
         rdf:resource="http://purl.org/dc/dcmitype/StillImage" /></cc:Work></rdf:RDF></metadata><defs
   id="defs3117"><filter
     inkscape:collect="always"
     id="filter3893"
     x="-0.12000007"
     width="1.2400001"
     y="-0.11999993"
     height="1.2399999"><feGaussianBlur
       inkscape:collect="always"
       stdDeviation="17.764785"
       id="feGaussianBlur3895" /></filter><filter
     inkscape:collect="always"
     id="filter3901"><feGaussianBlur
       inkscape:collect="always"
       stdDeviation="4.1557871"
       id="feGaussianBlur3903" /></filter><filter
     inkscape:collect="always"
     id="filter3909"><feGaussianBlur
       inkscape:collect="always"
       stdDeviation="9.5786019"
       id="feGaussianBlur3911" /></filter><filter
     inkscape:collect="always"
     id="filter3937"><feGaussianBlur
       inkscape:collect="always"
       stdDeviation="18.414647"
       id="feGaussianBlur3939" /></filter><filter
     inkscape:collect="always"
     id="filter3945"><feGaussianBlur
       inkscape:collect="always"
       stdDeviation="4.35733"
       id="feGaussianBlur3947" /></filter><filter
     inkscape:collect="always"
     id="filter3953"><feGaussianBlur
       inkscape:collect="always"
       stdDeviation="21.04533"
       id="feGaussianBlur3955" /></filter></defs><sodipodi:namedview
   pagecolor="#ffffff"
   bordercolor="#666666"
   borderopacity="1"
   objecttolerance="10"
   gridtolerance="10"
   guidetolerance="10"
   inkscape:pageopacity="0"
   inkscape:pageshadow="2"
   inkscape:window-width="1920"
   inkscape:window-height="1013"
   id="namedview3115"
   showgrid="false"
   inkscape:zoom="0.921875"
   inkscape:cx="324.46138"
   inkscape:cy="459.64277"
   inkscape:window-x="-9"
   inkscape:window-y="-9"
   inkscape:window-maximized="1"
   inkscape:current-layer="Kolka" />
<g
   id="Tlo">
	<path
   fill-rule="evenodd"
   clip-rule="evenodd"
   fill="#141414"
   d="M0,0h1024v1024H0V0z"
   id="path3056" />
</g>
<g
   id="Kolka">
	
		<linearGradient
   id="SVGID_1_"
   gradientUnits="userSpaceOnUse"
   x1="709.334"
   y1="252.5342"
   x2="982.9346"
   y2="252.5342"
   gradientTransform="matrix(0.9511 0.309 -0.309 0.9511 119.4498 -249.1097)">
		<stop
   offset="0"
   style="stop-color:#0063A9"
   id="stop3060" />
		<stop
   offset="0.5075"
   style="stop-color:#0C85D6"
   id="stop3062" />
		<stop
   offset="1"
   style="stop-color:#43C3FF"
   id="stop3064" />
	</linearGradient>
	<path
   fill-rule="evenodd"
   clip-rule="evenodd"
   fill="url(#SVGID_1_)"
   d="M888.406,122.43   c71.854,23.347,111.179,100.523,87.832,172.377c-23.348,71.855-100.524,111.179-172.379,87.832   c-71.854-23.348-111.178-100.523-87.831-172.379C739.375,138.406,816.552,99.082,888.406,122.43z"
   id="path3066"
   style="filter:url(#filter3909)" />
	
		<linearGradient
   id="SVGID_2_"
   gradientUnits="userSpaceOnUse"
   x1="-256"
   y1="-305.333"
   x2="796.2676"
   y2="-305.333"
   gradientTransform="matrix(-0.7071 -0.7071 0.7071 -0.7071 677.0495 -330.2244)">
		<stop
   offset="0"
   style="stop-color:#0063A9"
   id="stop3069" />
		<stop
   offset="0.5075"
   style="stop-color:#0C85D6"
   id="stop3071" />
		<stop
   offset="1"
   style="stop-color:#43C3FF"
   id="stop3073" />
	</linearGradient>
	<path
   fill-rule="evenodd"
   clip-rule="evenodd"
   fill="url(#SVGID_2_)"
   d="M-101.899,66.699   c-205.468-205.469-205.467-538.598,0-744.065s538.597-205.468,744.064,0c205.467,205.468,205.468,538.597,0,744.065   C436.698,272.166,103.568,272.166-101.899,66.699z"
   id="path3075"
   style="filter:url(#filter3937)" />
	
		<linearGradient
   id="SVGID_3_"
   gradientUnits="userSpaceOnUse"
   x1="82.1343"
   y1="485.3335"
   x2="437.3335"
   y2="485.3335"
   gradientTransform="matrix(0.9511 0.309 -0.309 0.9511 162.6891 -56.5081)">
		<stop
   offset="0"
   style="stop-color:#0063A9"
   id="stop3078" />
		<stop
   offset="0.5075"
   style="stop-color:#0C85D6"
   id="stop3080" />
		<stop
   offset="1"
   style="stop-color:#43C3FF"
   id="stop3082" />
	</linearGradient>
	<path
   fill-rule="evenodd"
   clip-rule="evenodd"
   fill="url(#SVGID_3_)"
   d="M314.615,316.425   c93.285,30.311,144.336,130.504,114.026,223.79C398.331,633.5,298.137,684.551,204.853,654.24   C111.567,623.932,60.516,523.736,90.826,430.452C121.136,337.167,221.33,286.115,314.615,316.425z"
   id="path3084"
   style="filter:url(#filter3893)" />
	
		<linearGradient
   id="SVGID_4_"
   gradientUnits="userSpaceOnUse"
   x1="-255.9995"
   y1="898.666"
   x2="574.9341"
   y2="898.666"
   gradientTransform="matrix(0.9511 0.309 -0.309 0.9511 285.5084 -5.2952)">
		<stop
   offset="0"
   style="stop-color:#0063A9"
   id="stop3087" />
		<stop
   offset="0.5075"
   style="stop-color:#0C85D6"
   id="stop3089" />
		<stop
   offset="1"
   style="stop-color:#43C3FF"
   id="stop3091" />
	</linearGradient>
	<path
   opacity="0.9"
   fill-rule="evenodd"
   clip-rule="evenodd"
   fill="url(#SVGID_4_)"
   d="M287.853,503.533   c218.226,70.906,337.652,305.293,266.746,523.52c-70.905,218.225-305.293,337.65-523.519,266.744   c-218.225-70.905-337.651-305.292-266.746-523.518C-164.76,552.055,69.627,432.628,287.853,503.533z"
   id="path3093"
   style="filter:url(#filter3901)" />
	
		<linearGradient
   id="SVGID_5_"
   gradientUnits="userSpaceOnUse"
   x1="193.0664"
   y1="635.7344"
   x2="1024"
   y2="635.7344"
   gradientTransform="matrix(0.9511 0.309 -0.309 0.9511 226.236 -156.9329)">
		<stop
   offset="0"
   style="stop-color:#0063A9"
   id="stop3096" />
		<stop
   offset="0.5075"
   style="stop-color:#0C85D6"
   id="stop3098" />
		<stop
   offset="1"
   style="stop-color:#43C3FF"
   id="stop3100" />
	</linearGradient>
	<path
   opacity="0.9"
   fill-rule="evenodd"
   clip-rule="evenodd"
   fill="url(#SVGID_5_)"
   d="M736.92,240.601   c218.225,70.906,337.651,305.293,266.745,523.519c-70.905,218.226-305.293,337.652-523.519,266.746   C261.921,959.96,142.494,725.572,213.4,507.347C284.306,289.121,518.694,169.695,736.92,240.601z"
   id="path3102" />
	<path
   fill-rule="evenodd"
   clip-rule="evenodd"
   fill="#141414"
   d="M1126.391,515.722c240.648,0,435.733,195.085,435.733,435.733   s-195.085,435.733-435.733,435.733s-435.733-195.085-435.733-435.733S885.742,515.722,1126.391,515.722z"
   id="path3104"
   style="filter:url(#filter3945)" />
	
		<linearGradient
   id="SVGID_6_"
   gradientUnits="userSpaceOnUse"
   x1="481.6016"
   y1="1314.4004"
   x2="1533.8672"
   y2="1314.4004"
   gradientTransform="matrix(-0.7071 -0.7071 0.7071 -0.7071 790.8869 2956.3967)">
		<stop
   offset="0"
   style="stop-color:#0063A9"
   id="stop3107" />
		<stop
   offset="0.5075"
   style="stop-color:#0C85D6"
   id="stop3109" />
		<stop
   offset="1"
   style="stop-color:#43C3FF"
   id="stop3111" />
	</linearGradient>
	<path
   opacity="0.95"
   fill-rule="evenodd"
   clip-rule="evenodd"
   fill="url(#SVGID_6_)"
   d="M635.701,1686.434   c-205.467-205.468-205.467-538.597,0.001-744.064C841.17,736.9,1174.299,736.9,1379.766,942.368   c205.468,205.468,205.469,538.597,0,744.065C1174.298,1891.901,841.168,1891.9,635.701,1686.434z"
   id="path3113"
   style="filter:url(#filter3953)" />
</g>
</svg>